<svg width="845" height="149" viewBox="0 0 845 149" fill="none" xmlns="http://www.w3.org/2000/svg">
<g filter="url(#filter0_g_189_1502)">
<rect x="24" y="24" width="797" height="101" rx="50.5" fill="#006176"/>
</g>
<path d="M91.3904 92L82.1744 57.92H89.8064L95.6624 81.92L101.566 57.92H107.95L113.902 81.92L119.71 57.92H127.342L118.174 92H110.302L104.734 70.208L99.1664 92H91.3904ZM130.957 92V57.92H138.157V72.272H137.197C137.453 70.768 137.949 69.536 138.685 68.576C139.453 67.616 140.397 66.896 141.517 66.416C142.669 65.936 143.917 65.696 145.261 65.696C147.181 65.696 148.781 66.112 150.061 66.944C151.341 67.776 152.301 68.928 152.941 70.4C153.613 71.872 153.949 73.552 153.949 75.44V92H146.749V77.168C146.749 75.248 146.445 73.808 145.837 72.848C145.261 71.888 144.269 71.408 142.861 71.408C141.389 71.408 140.237 71.904 139.405 72.896C138.573 73.888 138.157 75.376 138.157 77.36V92H130.957ZM167.323 92.576C164.667 92.576 162.491 91.968 160.795 90.752C159.131 89.504 158.299 87.776 158.299 85.568C158.299 83.296 159.003 81.552 160.411 80.336C161.851 79.088 163.963 78.176 166.747 77.6L175.051 75.968C175.051 74.304 174.667 73.056 173.899 72.224C173.163 71.36 172.091 70.928 170.683 70.928C169.307 70.928 168.235 71.248 167.467 71.888C166.699 72.496 166.203 73.408 165.979 74.624L158.731 74.288C159.211 71.472 160.475 69.344 162.523 67.904C164.603 66.432 167.323 65.696 170.683 65.696C174.523 65.696 177.403 66.608 179.323 68.432C181.275 70.256 182.251 72.928 182.251 76.448V85.232C182.251 85.968 182.363 86.464 182.587 86.72C182.843 86.944 183.211 87.056 183.691 87.056H184.411V92C184.187 92.064 183.819 92.128 183.307 92.192C182.827 92.256 182.347 92.288 181.867 92.288C180.843 92.288 179.883 92.112 178.987 91.76C178.123 91.408 177.419 90.816 176.875 89.984C176.331 89.12 176.059 87.904 176.059 86.336L176.683 86.816C176.363 87.968 175.787 88.976 174.955 89.84C174.155 90.704 173.099 91.376 171.787 91.856C170.507 92.336 169.019 92.576 167.323 92.576ZM169.051 87.632C170.235 87.632 171.275 87.408 172.171 86.96C173.067 86.48 173.771 85.792 174.283 84.896C174.795 84 175.051 82.944 175.051 81.728V80.48L169.195 81.728C168.043 81.952 167.163 82.336 166.555 82.88C165.979 83.392 165.691 84.064 165.691 84.896C165.691 85.76 165.979 86.432 166.555 86.912C167.131 87.392 167.963 87.632 169.051 87.632ZM197.441 92C194.785 92 192.833 91.392 191.585 90.176C190.337 88.928 189.713 86.96 189.713 84.272V60.224H196.913V83.408C196.913 84.656 197.169 85.504 197.681 85.952C198.225 86.4 199.025 86.624 200.081 86.624H203.681V92H197.441ZM185.585 71.648V66.272H203.681V71.648H185.585ZM219.466 92V57.92H226.762V92H219.466ZM243.996 92.576C241.34 92.576 239.116 92.208 237.324 91.472C235.532 90.704 234.156 89.68 233.196 88.4C232.268 87.088 231.74 85.584 231.612 83.888L238.908 83.648C239.132 84.864 239.644 85.808 240.444 86.48C241.244 87.152 242.428 87.488 243.996 87.488C245.276 87.488 246.268 87.28 246.972 86.864C247.708 86.448 248.076 85.808 248.076 84.944C248.076 84.4 247.948 83.952 247.692 83.6C247.436 83.216 246.924 82.896 246.156 82.64C245.42 82.352 244.316 82.096 242.844 81.872C240.124 81.392 237.996 80.832 236.46 80.192C234.924 79.552 233.836 78.72 233.196 77.696C232.556 76.672 232.236 75.424 232.236 73.952C232.236 71.488 233.18 69.504 235.068 68C236.988 66.464 239.852 65.696 243.66 65.696C246.092 65.696 248.124 66.08 249.756 66.848C251.42 67.616 252.7 68.672 253.596 70.016C254.524 71.328 255.1 72.832 255.324 74.528L248.076 74.816C247.98 73.984 247.724 73.28 247.308 72.704C246.924 72.096 246.428 71.632 245.82 71.312C245.212 70.96 244.476 70.784 243.612 70.784C242.332 70.784 241.34 71.056 240.636 71.6C239.964 72.112 239.628 72.8 239.628 73.664C239.628 74.304 239.772 74.832 240.06 75.248C240.38 75.632 240.892 75.952 241.596 76.208C242.3 76.464 243.244 76.672 244.428 76.832C247.18 77.216 249.356 77.76 250.956 78.464C252.588 79.136 253.756 79.984 254.46 81.008C255.164 82.032 255.516 83.296 255.516 84.8C255.516 86.464 255.036 87.872 254.076 89.024C253.116 90.176 251.772 91.056 250.044 91.664C248.348 92.272 246.332 92.576 243.996 92.576ZM271.732 92V57.92H279.028V74.096L275.812 71.792H295.204L291.94 74.096V57.92H299.236V92H291.94V75.632L295.204 77.936H275.812L279.028 75.632V92H271.732ZM320.373 92.768C317.493 92.768 314.997 92.24 312.885 91.184C310.805 90.128 309.189 88.624 308.037 86.672C306.885 84.688 306.309 82.368 306.309 79.712V57.872H313.605V79.712C313.605 81.92 314.181 83.632 315.333 84.848C316.517 86.032 318.197 86.624 320.373 86.624C322.549 86.624 324.213 86.032 325.365 84.848C326.517 83.632 327.093 81.92 327.093 79.712V57.872H334.389V79.712C334.389 82.368 333.813 84.688 332.661 86.672C331.541 88.624 329.925 90.128 327.813 91.184C325.701 92.24 323.221 92.768 320.373 92.768ZM341.482 92V57.92H351.226L359.914 82.736L368.554 57.92H378.298V92H371.002V69.92L362.986 91.904H356.746L348.778 69.92V92H341.482ZM384.747 92V57.92H397.995C402.219 57.92 405.451 58.672 407.691 60.176C409.931 61.648 411.051 63.984 411.051 67.184C411.051 68.592 410.763 69.824 410.187 70.88C409.611 71.904 408.763 72.72 407.643 73.328C406.555 73.936 405.227 74.304 403.659 74.432V74.336C406.507 74.528 408.683 75.36 410.187 76.832C411.723 78.272 412.491 80.192 412.491 82.592C412.491 85.76 411.371 88.128 409.131 89.696C406.923 91.232 403.755 92 399.627 92H384.747ZM392.043 86.048H399.291C401.051 86.048 402.459 85.696 403.515 84.992C404.603 84.256 405.147 83.168 405.147 81.728C405.147 80.288 404.603 79.2 403.515 78.464C402.459 77.696 401.051 77.312 399.291 77.312H392.043V86.048ZM392.043 72.032H397.803C399.595 72.032 401.019 71.68 402.075 70.976C403.163 70.272 403.707 69.264 403.707 67.952C403.707 66.544 403.179 65.52 402.123 64.88C401.099 64.208 399.659 63.872 397.803 63.872H392.043V72.032ZM429.419 92V57.92H443.051C447.147 57.92 450.347 58.912 452.651 60.896C454.987 62.88 456.155 65.6 456.155 69.056C456.155 71.328 455.627 73.312 454.571 75.008C453.547 76.672 452.043 77.968 450.059 78.896C448.107 79.792 445.771 80.24 443.051 80.24H436.715V92H429.419ZM436.715 74.096H442.619C444.539 74.096 446.027 73.68 447.083 72.848C448.139 71.984 448.667 70.72 448.667 69.056C448.667 67.424 448.139 66.192 447.083 65.36C446.059 64.496 444.571 64.064 442.619 64.064H436.715V74.096ZM461.004 92V66.272H467.82L468.06 73.76L467.532 73.616C467.948 71.024 468.684 69.152 469.74 68C470.796 66.848 472.252 66.272 474.108 66.272H476.46V72.224H474.108C472.764 72.224 471.66 72.4 470.796 72.752C469.932 73.104 469.276 73.664 468.828 74.432C468.412 75.2 468.204 76.24 468.204 77.552V92H461.004ZM491.137 92.576C488.513 92.576 486.225 92.032 484.273 90.944C482.321 89.824 480.801 88.256 479.713 86.24C478.625 84.224 478.081 81.856 478.081 79.136C478.081 76.416 478.625 74.064 479.713 72.08C480.801 70.064 482.321 68.496 484.273 67.376C486.225 66.256 488.513 65.696 491.137 65.696C493.761 65.696 496.049 66.256 498.001 67.376C499.953 68.496 501.473 70.064 502.561 72.08C503.649 74.064 504.193 76.416 504.193 79.136C504.193 81.856 503.649 84.224 502.561 86.24C501.473 88.256 499.953 89.824 498.001 90.944C496.049 92.032 493.761 92.576 491.137 92.576ZM491.137 87.056C492.929 87.056 494.321 86.368 495.313 84.992C496.305 83.584 496.801 81.632 496.801 79.136C496.801 76.64 496.305 74.704 495.313 73.328C494.321 71.92 492.929 71.216 491.137 71.216C489.345 71.216 487.953 71.92 486.961 73.328C485.969 74.704 485.473 76.64 485.473 79.136C485.473 81.632 485.969 83.584 486.961 84.992C487.953 86.368 489.345 87.056 491.137 87.056ZM508.676 99.2V66.272H515.588L515.732 71.696L515.156 71.456C515.796 69.6 516.836 68.176 518.276 67.184C519.716 66.192 521.396 65.696 523.316 65.696C525.716 65.696 527.716 66.288 529.316 67.472C530.916 68.656 532.116 70.272 532.916 72.32C533.748 74.336 534.164 76.608 534.164 79.136C534.164 81.632 533.748 83.904 532.916 85.952C532.116 88 530.9 89.616 529.268 90.8C527.668 91.984 525.668 92.576 523.268 92.576C522.02 92.576 520.852 92.352 519.764 91.904C518.676 91.424 517.732 90.768 516.932 89.936C516.164 89.104 515.604 88.112 515.252 86.96L515.876 86.576V99.2H508.676ZM521.3 87.056C522.996 87.056 524.324 86.352 525.284 84.944C526.276 83.536 526.772 81.6 526.772 79.136C526.772 76.672 526.276 74.736 525.284 73.328C524.324 71.92 522.996 71.216 521.3 71.216C520.18 71.216 519.204 71.52 518.372 72.128C517.572 72.704 516.948 73.584 516.5 74.768C516.084 75.952 515.876 77.408 515.876 79.136C515.876 80.864 516.084 82.32 516.5 83.504C516.948 84.688 517.572 85.584 518.372 86.192C519.204 86.768 520.18 87.056 521.3 87.056ZM550.197 92.576C547.573 92.576 545.285 92.032 543.333 90.944C541.413 89.824 539.909 88.256 538.821 86.24C537.765 84.224 537.237 81.856 537.237 79.136C537.237 76.416 537.765 74.064 538.821 72.08C539.909 70.064 541.413 68.496 543.333 67.376C545.253 66.256 547.525 65.696 550.149 65.696C552.709 65.696 554.933 66.256 556.821 67.376C558.709 68.496 560.165 70.096 561.189 72.176C562.245 74.256 562.773 76.736 562.773 79.616V81.056H544.677C544.773 83.104 545.317 84.624 546.309 85.616C547.333 86.608 548.677 87.104 550.341 87.104C551.557 87.104 552.565 86.848 553.365 86.336C554.197 85.824 554.789 85.04 555.141 83.984L562.389 84.416C561.717 86.976 560.293 88.976 558.117 90.416C555.941 91.856 553.301 92.576 550.197 92.576ZM544.677 76.64H555.381C555.285 74.752 554.757 73.344 553.797 72.416C552.869 71.488 551.653 71.024 550.149 71.024C548.645 71.024 547.397 71.52 546.405 72.512C545.445 73.472 544.869 74.848 544.677 76.64ZM567.223 92V66.272H574.039L574.279 73.76L573.751 73.616C574.167 71.024 574.903 69.152 575.959 68C577.015 66.848 578.471 66.272 580.327 66.272H582.679V72.224H580.327C578.983 72.224 577.879 72.4 577.015 72.752C576.151 73.104 575.495 73.664 575.047 74.432C574.631 75.2 574.423 76.24 574.423 77.552V92H567.223ZM596.722 92C594.066 92 592.114 91.392 590.866 90.176C589.618 88.928 588.994 86.96 588.994 84.272V60.224H596.194V83.408C596.194 84.656 596.45 85.504 596.962 85.952C597.506 86.4 598.306 86.624 599.362 86.624H602.962V92H596.722ZM584.866 71.648V66.272H602.962V71.648H584.866ZM608.991 99.2V93.824H612.399C613.231 93.824 613.839 93.696 614.223 93.44C614.639 93.216 614.959 92.8 615.183 92.192L615.711 90.704H613.743L604.719 66.272H612.063L617.967 83.984L623.487 66.272H630.831L620.943 94.448C620.367 96.144 619.535 97.36 618.447 98.096C617.359 98.832 615.839 99.2 613.887 99.2H608.991ZM646.31 92V57.92H658.07C663.606 57.92 667.862 59.408 670.838 62.384C673.814 65.328 675.302 69.536 675.302 75.008C675.302 80.448 673.83 84.64 670.886 87.584C667.974 90.528 663.798 92 658.358 92H646.31ZM653.606 85.856H658.07C661.366 85.856 663.798 84.976 665.366 83.216C666.966 81.424 667.766 78.672 667.766 74.96C667.766 71.248 666.966 68.512 665.366 66.752C663.798 64.96 661.366 64.064 658.07 64.064H653.606V85.856ZM680.107 92V57.92H703.819V64.064H687.403V71.888H703.243V77.936H687.403V85.856H704.203V92H680.107ZM706.99 92L718.558 74.912L707.086 57.92H715.534L722.974 69.392L730.222 57.92H738.718L727.246 74.816L738.862 92H730.366L722.878 80.336L715.486 92H706.99ZM748.658 81.248C748.658 78.656 749.01 76.688 749.714 75.344C750.45 73.968 751.666 72.864 753.362 72.032C754.546 71.424 755.426 70.896 756.002 70.448C756.61 69.968 757.01 69.472 757.202 68.96C757.394 68.448 757.49 67.84 757.49 67.136C757.49 65.952 757.09 64.992 756.29 64.256C755.522 63.488 754.418 63.104 752.978 63.104C751.346 63.104 750.066 63.552 749.138 64.448C748.242 65.312 747.698 66.608 747.506 68.336L740.018 67.952C740.21 65.872 740.834 64.016 741.89 62.384C742.946 60.752 744.402 59.472 746.258 58.544C748.114 57.616 750.354 57.152 752.978 57.152C755.57 57.152 757.746 57.584 759.506 58.448C761.266 59.312 762.594 60.496 763.49 62C764.418 63.504 764.882 65.216 764.882 67.136C764.882 68.512 764.674 69.68 764.258 70.64C763.874 71.6 763.25 72.464 762.386 73.232C761.522 74 760.37 74.784 758.93 75.584C757.778 76.288 756.962 77.024 756.482 77.792C756.034 78.56 755.81 79.712 755.81 81.248H748.658ZM748.226 92V84.656H756.05V92H748.226Z" fill="#E6E6E6"/>
<defs>
<filter id="filter0_g_189_1502" x="0" y="0" width="845" height="149" filterUnits="userSpaceOnUse" color-interpolation-filters="sRGB">
<feFlood flood-opacity="0" result="BackgroundImageFix"/>
<feBlend mode="normal" in="SourceGraphic" in2="BackgroundImageFix" result="shape"/>
<feTurbulence type="fractalNoise" baseFrequency="0.1111111119389534 0.1111111119389534" numOctaves="3" seed="789" />
<feDisplacementMap in="shape" scale="48" xChannelSelector="R" yChannelSelector="G" result="displacedImage" width="100%" height="100%" />
<feMerge result="effect1_texture_189_1502">
<feMergeNode in="displacedImage"/>
</feMerge>
</filter>
</defs>
</svg>
