<svg width="676" height="148" viewBox="0 0 676 148" fill="none" xmlns="http://www.w3.org/2000/svg">
<g filter="url(#filter0_g_917_27089)">
<rect x="24" y="24" width="628" height="100" rx="50" fill="#006176"/>
</g>
<path d="M204.567 85.512C202.327 85.512 200.396 85.0427 198.775 84.104C197.154 83.144 195.906 81.7787 195.031 80.008C194.178 78.2373 193.751 76.1253 193.751 73.672C193.751 71.2187 194.178 69.1067 195.031 67.336C195.906 65.544 197.154 64.168 198.775 63.208C200.396 62.248 202.327 61.768 204.567 61.768C206.85 61.768 208.791 62.248 210.391 63.208C212.012 64.168 213.25 65.544 214.103 67.336C214.978 69.1067 215.415 71.2187 215.415 73.672C215.415 76.1253 214.978 78.2373 214.103 80.008C213.25 81.7787 212.012 83.144 210.391 84.104C208.791 85.0427 206.85 85.512 204.567 85.512ZM204.567 81.896C205.954 81.896 207.127 81.576 208.087 80.936C209.068 80.2747 209.815 79.336 210.327 78.12C210.86 76.8827 211.127 75.4 211.127 73.672C211.127 71.944 210.86 70.4613 210.327 69.224C209.815 67.9867 209.068 67.0373 208.087 66.376C207.127 65.7147 205.954 65.384 204.567 65.384C203.223 65.384 202.06 65.7147 201.079 66.376C200.098 67.0373 199.34 67.9867 198.807 69.224C198.295 70.4613 198.039 71.944 198.039 73.672C198.039 75.4 198.295 76.8827 198.807 78.12C199.34 79.336 200.098 80.2747 201.079 80.936C202.06 81.576 203.223 81.896 204.567 81.896ZM224.653 85.384C222.925 85.384 221.549 84.8187 220.525 83.688C219.523 82.536 219.021 80.9467 219.021 78.92V67.912H223.117V77.896C223.117 79.3253 223.352 80.3813 223.821 81.064C224.312 81.7253 225.048 82.056 226.029 82.056C227.139 82.056 227.992 81.6933 228.589 80.968C229.208 80.2213 229.517 79.144 229.517 77.736V67.912H233.613V85H229.869L229.773 80.296L230.285 80.456C230.029 82.0773 229.421 83.304 228.461 84.136C227.501 84.968 226.232 85.384 224.653 85.384ZM238.115 85V67.912H241.955L242.115 72.648L241.763 72.584C242.019 70.9413 242.499 69.7573 243.203 69.032C243.928 68.2853 244.91 67.912 246.147 67.912H247.715V71.432H246.115C245.24 71.432 244.515 71.56 243.939 71.816C243.363 72.072 242.926 72.4773 242.627 73.032C242.35 73.5653 242.211 74.2693 242.211 75.144V85H238.115ZM259.091 85V62.28H264.691L270.963 79.88L277.235 62.28H282.835V85H278.675V69.32L272.947 84.968H268.979L263.251 69.32V85H259.091ZM287.146 85V67.912H291.242V85H287.146ZM287.082 65.64V61.992H291.338V65.64H287.082ZM302.372 85.384C300.686 85.384 299.268 85.1387 298.116 84.648C296.985 84.1573 296.11 83.4747 295.492 82.6C294.873 81.7253 294.521 80.7333 294.436 79.624L298.628 79.432C298.777 80.328 299.15 81.0213 299.748 81.512C300.345 82.0027 301.23 82.248 302.404 82.248C303.364 82.248 304.11 82.0987 304.644 81.8C305.198 81.48 305.476 80.9893 305.476 80.328C305.476 79.944 305.38 79.624 305.188 79.368C304.996 79.112 304.633 78.888 304.1 78.696C303.566 78.504 302.777 78.312 301.732 78.12C299.982 77.8213 298.606 77.4587 297.604 77.032C296.601 76.584 295.886 76.0293 295.46 75.368C295.054 74.7067 294.852 73.8853 294.852 72.904C294.852 71.304 295.46 70.0133 296.676 69.032C297.913 68.0293 299.716 67.528 302.084 67.528C303.62 67.528 304.91 67.784 305.956 68.296C307.001 68.7867 307.812 69.4693 308.388 70.344C308.985 71.1973 309.358 72.1787 309.508 73.288L305.38 73.48C305.273 72.904 305.081 72.4027 304.804 71.976C304.526 71.5493 304.153 71.2293 303.684 71.016C303.214 70.7813 302.66 70.664 302.02 70.664C301.06 70.664 300.334 70.856 299.844 71.24C299.353 71.624 299.108 72.136 299.108 72.776C299.108 73.224 299.214 73.5973 299.428 73.896C299.662 74.1947 300.036 74.44 300.548 74.632C301.06 74.8027 301.742 74.9627 302.595 75.112C304.388 75.3893 305.796 75.752 306.82 76.2C307.865 76.6267 308.601 77.1813 309.028 77.864C309.476 78.5253 309.7 79.3253 309.7 80.264C309.7 81.352 309.39 82.28 308.772 83.048C308.174 83.816 307.321 84.4027 306.212 84.808C305.124 85.192 303.844 85.384 302.372 85.384ZM319.84 85.384C318.155 85.384 316.736 85.1387 315.584 84.648C314.454 84.1573 313.579 83.4747 312.96 82.6C312.342 81.7253 311.99 80.7333 311.904 79.624L316.096 79.432C316.246 80.328 316.619 81.0213 317.216 81.512C317.814 82.0027 318.699 82.248 319.872 82.248C320.832 82.248 321.579 82.0987 322.112 81.8C322.667 81.48 322.944 80.9893 322.944 80.328C322.944 79.944 322.848 79.624 322.656 79.368C322.464 79.112 322.102 78.888 321.568 78.696C321.035 78.504 320.246 78.312 319.2 78.12C317.451 77.8213 316.075 77.4587 315.072 77.032C314.07 76.584 313.355 76.0293 312.928 75.368C312.523 74.7067 312.32 73.8853 312.32 72.904C312.32 71.304 312.928 70.0133 314.144 69.032C315.382 68.0293 317.184 67.528 319.552 67.528C321.088 67.528 322.379 67.784 323.424 68.296C324.47 68.7867 325.28 69.4693 325.856 70.344C326.454 71.1973 326.827 72.1787 326.976 73.288L322.848 73.48C322.742 72.904 322.55 72.4027 322.272 71.976C321.995 71.5493 321.622 71.2293 321.152 71.016C320.683 70.7813 320.128 70.664 319.488 70.664C318.528 70.664 317.803 70.856 317.312 71.24C316.822 71.624 316.576 72.136 316.576 72.776C316.576 73.224 316.683 73.5973 316.896 73.896C317.131 74.1947 317.504 74.44 318.016 74.632C318.528 74.8027 319.211 74.9627 320.064 75.112C321.856 75.3893 323.264 75.752 324.288 76.2C325.334 76.6267 326.07 77.1813 326.496 77.864C326.944 78.5253 327.168 79.3253 327.168 80.264C327.168 81.352 326.859 82.28 326.24 83.048C325.643 83.816 324.79 84.4027 323.68 84.808C322.592 85.192 321.312 85.384 319.84 85.384ZM330.365 85V67.912H334.461V85H330.365ZM330.301 65.64V61.992H334.557V65.64H330.301ZM346.07 85.384C344.385 85.384 342.902 85.0213 341.622 84.296C340.364 83.5493 339.382 82.504 338.678 81.16C337.996 79.816 337.654 78.248 337.654 76.456C337.654 74.6427 337.996 73.0747 338.678 71.752C339.382 70.408 340.364 69.3733 341.622 68.648C342.902 67.9013 344.385 67.528 346.07 67.528C347.756 67.528 349.228 67.9013 350.486 68.648C351.745 69.3733 352.716 70.408 353.398 71.752C354.102 73.0747 354.454 74.6427 354.454 76.456C354.454 78.248 354.102 79.816 353.398 81.16C352.716 82.504 351.745 83.5493 350.486 84.296C349.228 85.0213 347.756 85.384 346.07 85.384ZM346.07 82.056C347.393 82.056 348.406 81.5653 349.11 80.584C349.836 79.6027 350.198 78.2267 350.198 76.456C350.198 74.7067 349.836 73.3413 349.11 72.36C348.406 71.3573 347.393 70.856 346.07 70.856C344.748 70.856 343.724 71.3573 342.998 72.36C342.273 73.3413 341.91 74.7067 341.91 76.456C341.91 78.2267 342.273 79.6027 342.998 80.584C343.724 81.5653 344.748 82.056 346.07 82.056ZM357.615 85V67.912H361.327L361.487 72.712L361.007 72.52C361.178 71.3253 361.53 70.3653 362.063 69.64C362.596 68.9147 363.247 68.3813 364.015 68.04C364.783 67.6987 365.626 67.528 366.543 67.528C367.802 67.528 368.858 67.8053 369.711 68.36C370.586 68.9147 371.247 69.6827 371.695 70.664C372.143 71.624 372.367 72.744 372.367 74.024V85H368.271V75.336C368.271 74.376 368.175 73.5653 367.983 72.904C367.791 72.2427 367.471 71.7413 367.023 71.4C366.596 71.0373 366.02 70.856 365.295 70.856C364.207 70.856 363.332 71.24 362.671 72.008C362.031 72.776 361.711 73.8853 361.711 75.336V85H357.615ZM375.682 88.52L385.154 61H389.186L379.714 88.52H375.682ZM399.363 85L391.139 62.28H395.523L401.891 80.36L408.227 62.28H412.611L404.355 85H399.363ZM414.646 85V67.912H418.742V85H414.646ZM414.582 65.64V61.992H418.838V65.64H414.582ZM429.872 85.384C428.186 85.384 426.768 85.1387 425.616 84.648C424.485 84.1573 423.61 83.4747 422.992 82.6C422.373 81.7253 422.021 80.7333 421.936 79.624L426.128 79.432C426.277 80.328 426.65 81.0213 427.248 81.512C427.845 82.0027 428.73 82.248 429.904 82.248C430.864 82.248 431.61 82.0987 432.144 81.8C432.698 81.48 432.976 80.9893 432.976 80.328C432.976 79.944 432.88 79.624 432.688 79.368C432.496 79.112 432.133 78.888 431.6 78.696C431.066 78.504 430.277 78.312 429.232 78.12C427.482 77.8213 426.106 77.4587 425.104 77.032C424.101 76.584 423.386 76.0293 422.96 75.368C422.554 74.7067 422.352 73.8853 422.352 72.904C422.352 71.304 422.96 70.0133 424.176 69.032C425.413 68.0293 427.216 67.528 429.584 67.528C431.12 67.528 432.41 67.784 433.456 68.296C434.501 68.7867 435.312 69.4693 435.888 70.344C436.485 71.1973 436.858 72.1787 437.008 73.288L432.88 73.48C432.773 72.904 432.581 72.4027 432.304 71.976C432.026 71.5493 431.653 71.2293 431.184 71.016C430.714 70.7813 430.16 70.664 429.52 70.664C428.56 70.664 427.834 70.856 427.344 71.24C426.853 71.624 426.608 72.136 426.608 72.776C426.608 73.224 426.714 73.5973 426.928 73.896C427.162 74.1947 427.536 74.44 428.048 74.632C428.56 74.8027 429.242 74.9627 430.095 75.112C431.888 75.3893 433.296 75.752 434.32 76.2C435.365 76.6267 436.101 77.1813 436.528 77.864C436.976 78.5253 437.2 79.3253 437.2 80.264C437.2 81.352 436.89 82.28 436.272 83.048C435.674 83.816 434.821 84.4027 433.712 84.808C432.624 85.192 431.344 85.384 429.872 85.384ZM440.396 85V67.912H444.492V85H440.396ZM440.332 65.64V61.992H444.588V65.64H440.332ZM456.102 85.384C454.416 85.384 452.934 85.0213 451.654 84.296C450.395 83.5493 449.414 82.504 448.71 81.16C448.027 79.816 447.686 78.248 447.686 76.456C447.686 74.6427 448.027 73.0747 448.71 71.752C449.414 70.408 450.395 69.3733 451.654 68.648C452.934 67.9013 454.416 67.528 456.102 67.528C457.787 67.528 459.259 67.9013 460.518 68.648C461.776 69.3733 462.747 70.408 463.43 71.752C464.134 73.0747 464.486 74.6427 464.486 76.456C464.486 78.248 464.134 79.816 463.43 81.16C462.747 82.504 461.776 83.5493 460.518 84.296C459.259 85.0213 457.787 85.384 456.102 85.384ZM456.102 82.056C457.424 82.056 458.438 81.5653 459.142 80.584C459.867 79.6027 460.23 78.2267 460.23 76.456C460.23 74.7067 459.867 73.3413 459.142 72.36C458.438 71.3573 457.424 70.856 456.102 70.856C454.779 70.856 453.755 71.3573 453.03 72.36C452.304 73.3413 451.942 74.7067 451.942 76.456C451.942 78.2267 452.304 79.6027 453.03 80.584C453.755 81.5653 454.779 82.056 456.102 82.056ZM467.646 85V67.912H471.358L471.518 72.712L471.038 72.52C471.209 71.3253 471.561 70.3653 472.094 69.64C472.628 68.9147 473.278 68.3813 474.046 68.04C474.814 67.6987 475.657 67.528 476.574 67.528C477.833 67.528 478.889 67.8053 479.742 68.36C480.617 68.9147 481.278 69.6827 481.726 70.664C482.174 71.624 482.398 72.744 482.398 74.024V85H478.302V75.336C478.302 74.376 478.206 73.5653 478.014 72.904C477.822 72.2427 477.502 71.7413 477.054 71.4C476.628 71.0373 476.052 70.856 475.326 70.856C474.238 70.856 473.364 71.24 472.702 72.008C472.062 72.776 471.742 73.8853 471.742 75.336V85H467.646Z" fill="white"/>
<defs>
<filter id="filter0_g_917_27089" x="0" y="0" width="676" height="148" filterUnits="userSpaceOnUse" color-interpolation-filters="sRGB">
<feFlood flood-opacity="0" result="BackgroundImageFix"/>
<feBlend mode="normal" in="SourceGraphic" in2="BackgroundImageFix" result="shape"/>
<feTurbulence type="fractalNoise" baseFrequency="0.1111111119389534 0.1111111119389534" numOctaves="3" seed="789" />
<feDisplacementMap in="shape" scale="48" xChannelSelector="R" yChannelSelector="G" result="displacedImage" width="100%" height="100%" />
<feMerge result="effect1_texture_917_27089">
<feMergeNode in="displacedImage"/>
</feMerge>
</filter>
</defs>
</svg>
