<svg width="540" height="149" viewBox="0 0 540 149" fill="none" xmlns="http://www.w3.org/2000/svg">
<g filter="url(#filter0_g_260_1384)">
<rect x="24" y="24" width="492" height="101" rx="50.5" fill="#006176"/>
</g>
<path d="M99.8879 88V53.92H107.184V70.096L103.968 67.792H123.36L120.096 70.096V53.92H127.392V88H120.096V71.632L123.36 73.936H103.968L107.184 71.632V88H99.8879ZM145.293 88.576C142.669 88.576 140.381 88.032 138.429 86.944C136.477 85.824 134.957 84.256 133.869 82.24C132.781 80.224 132.237 77.856 132.237 75.136C132.237 72.416 132.781 70.064 133.869 68.08C134.957 66.064 136.477 64.496 138.429 63.376C140.381 62.256 142.669 61.696 145.293 61.696C147.917 61.696 150.205 62.256 152.157 63.376C154.109 64.496 155.629 66.064 156.717 68.08C157.805 70.064 158.349 72.416 158.349 75.136C158.349 77.856 157.805 80.224 156.717 82.24C155.629 84.256 154.109 85.824 152.157 86.944C150.205 88.032 147.917 88.576 145.293 88.576ZM145.293 83.056C147.085 83.056 148.477 82.368 149.469 80.992C150.461 79.584 150.957 77.632 150.957 75.136C150.957 72.64 150.461 70.704 149.469 69.328C148.477 67.92 147.085 67.216 145.293 67.216C143.501 67.216 142.109 67.92 141.117 69.328C140.125 70.704 139.629 72.64 139.629 75.136C139.629 77.632 140.125 79.584 141.117 80.992C142.109 82.368 143.501 83.056 145.293 83.056ZM167.367 88L159.735 62.272H166.983L171.399 79.696L176.151 62.272H182.007L186.759 79.696L191.223 62.272H198.471L190.839 88H183.831L179.079 71.92L174.327 88H167.367ZM213.935 88V53.92H221.231V88H213.935ZM237.191 88C234.535 88 232.583 87.392 231.335 86.176C230.087 84.928 229.463 82.96 229.463 80.272V56.224H236.663V79.408C236.663 80.656 236.919 81.504 237.431 81.952C237.975 82.4 238.775 82.624 239.831 82.624H243.431V88H237.191ZM225.335 67.648V62.272H243.431V67.648H225.335ZM266.656 88L257.44 53.92H265.072L270.928 77.92L276.832 53.92H283.216L289.168 77.92L294.976 53.92H302.608L293.44 88H285.568L280 66.208L274.432 88H266.656ZM316.715 88.576C314.091 88.576 311.803 88.032 309.851 86.944C307.899 85.824 306.379 84.256 305.291 82.24C304.203 80.224 303.659 77.856 303.659 75.136C303.659 72.416 304.203 70.064 305.291 68.08C306.379 66.064 307.899 64.496 309.851 63.376C311.803 62.256 314.091 61.696 316.715 61.696C319.339 61.696 321.627 62.256 323.579 63.376C325.531 64.496 327.051 66.064 328.139 68.08C329.227 70.064 329.771 72.416 329.771 75.136C329.771 77.856 329.227 80.224 328.139 82.24C327.051 84.256 325.531 85.824 323.579 86.944C321.627 88.032 319.339 88.576 316.715 88.576ZM316.715 83.056C318.507 83.056 319.899 82.368 320.891 80.992C321.883 79.584 322.379 77.632 322.379 75.136C322.379 72.64 321.883 70.704 320.891 69.328C319.899 67.92 318.507 67.216 316.715 67.216C314.923 67.216 313.531 67.92 312.539 69.328C311.547 70.704 311.051 72.64 311.051 75.136C311.051 77.632 311.547 79.584 312.539 80.992C313.531 82.368 314.923 83.056 316.715 83.056ZM334.254 88V62.272H341.07L341.31 69.76L340.782 69.616C341.198 67.024 341.934 65.152 342.99 64C344.046 62.848 345.502 62.272 347.358 62.272H349.71V68.224H347.358C346.014 68.224 344.91 68.4 344.046 68.752C343.182 69.104 342.526 69.664 342.078 70.432C341.662 71.2 341.454 72.24 341.454 73.552V88H334.254ZM353.473 88V53.92H360.673V72.832L370.225 62.272H378.865L368.881 72.88L379.153 88H371.281L364.225 76.96L360.673 80.752V88H353.473ZM392.121 88.576C389.465 88.576 387.241 88.208 385.449 87.472C383.657 86.704 382.281 85.68 381.321 84.4C380.393 83.088 379.865 81.584 379.737 79.888L387.033 79.648C387.257 80.864 387.769 81.808 388.569 82.48C389.369 83.152 390.553 83.488 392.121 83.488C393.401 83.488 394.393 83.28 395.097 82.864C395.833 82.448 396.201 81.808 396.201 80.944C396.201 80.4 396.073 79.952 395.817 79.6C395.561 79.216 395.049 78.896 394.281 78.64C393.545 78.352 392.441 78.096 390.969 77.872C388.249 77.392 386.121 76.832 384.585 76.192C383.049 75.552 381.961 74.72 381.321 73.696C380.681 72.672 380.361 71.424 380.361 69.952C380.361 67.488 381.305 65.504 383.193 64C385.113 62.464 387.977 61.696 391.785 61.696C394.217 61.696 396.249 62.08 397.881 62.848C399.545 63.616 400.825 64.672 401.721 66.016C402.649 67.328 403.225 68.832 403.449 70.528L396.201 70.816C396.105 69.984 395.849 69.28 395.433 68.704C395.049 68.096 394.553 67.632 393.945 67.312C393.337 66.96 392.601 66.784 391.737 66.784C390.457 66.784 389.465 67.056 388.761 67.6C388.089 68.112 387.753 68.8 387.753 69.664C387.753 70.304 387.897 70.832 388.185 71.248C388.505 71.632 389.017 71.952 389.721 72.208C390.425 72.464 391.369 72.672 392.553 72.832C395.305 73.216 397.481 73.76 399.081 74.464C400.713 75.136 401.881 75.984 402.585 77.008C403.289 78.032 403.641 79.296 403.641 80.8C403.641 82.464 403.161 83.872 402.201 85.024C401.241 86.176 399.897 87.056 398.169 87.664C396.473 88.272 394.457 88.576 392.121 88.576ZM426.721 77.248C426.721 74.656 427.073 72.688 427.777 71.344C428.513 69.968 429.729 68.864 431.425 68.032C432.609 67.424 433.489 66.896 434.065 66.448C434.673 65.968 435.073 65.472 435.265 64.96C435.457 64.448 435.553 63.84 435.553 63.136C435.553 61.952 435.153 60.992 434.353 60.256C433.585 59.488 432.481 59.104 431.041 59.104C429.409 59.104 428.129 59.552 427.201 60.448C426.305 61.312 425.761 62.608 425.569 64.336L418.081 63.952C418.273 61.872 418.897 60.016 419.953 58.384C421.009 56.752 422.465 55.472 424.321 54.544C426.177 53.616 428.417 53.152 431.041 53.152C433.633 53.152 435.809 53.584 437.569 54.448C439.329 55.312 440.657 56.496 441.553 58C442.481 59.504 442.945 61.216 442.945 63.136C442.945 64.512 442.737 65.68 442.321 66.64C441.937 67.6 441.313 68.464 440.449 69.232C439.585 70 438.433 70.784 436.993 71.584C435.841 72.288 435.025 73.024 434.545 73.792C434.097 74.56 433.873 75.712 433.873 77.248H426.721ZM426.289 88V80.656H434.113V88H426.289Z" fill="#E6E6E6"/>
<defs>
<filter id="filter0_g_260_1384" x="0" y="0" width="540" height="149" filterUnits="userSpaceOnUse" color-interpolation-filters="sRGB">
<feFlood flood-opacity="0" result="BackgroundImageFix"/>
<feBlend mode="normal" in="SourceGraphic" in2="BackgroundImageFix" result="shape"/>
<feTurbulence type="fractalNoise" baseFrequency="0.1111111119389534 0.1111111119389534" numOctaves="3" seed="789" />
<feDisplacementMap in="shape" scale="48" xChannelSelector="R" yChannelSelector="G" result="displacedImage" width="100%" height="100%" />
<feMerge result="effect1_texture_260_1384">
<feMergeNode in="displacedImage"/>
</feMerge>
</filter>
</defs>
</svg>
