<svg width="677" height="149" viewBox="0 0 677 149" fill="none" xmlns="http://www.w3.org/2000/svg">
<g filter="url(#filter0_g_189_1519)">
<rect x="24" y="24" width="629" height="101" rx="50.5" fill="#006176"/>
</g>
<path d="M188.671 92.768C185.311 92.768 182.415 92.064 179.983 90.656C177.551 89.216 175.679 87.168 174.367 84.512C173.087 81.856 172.447 78.688 172.447 75.008C172.447 71.328 173.087 68.16 174.367 65.504C175.679 62.816 177.551 60.752 179.983 59.312C182.415 57.872 185.311 57.152 188.671 57.152C192.095 57.152 195.007 57.872 197.407 59.312C199.839 60.752 201.695 62.816 202.975 65.504C204.287 68.16 204.943 71.328 204.943 75.008C204.943 78.688 204.287 81.856 202.975 84.512C201.695 87.168 199.839 89.216 197.407 90.656C195.007 92.064 192.095 92.768 188.671 92.768ZM188.671 87.344C190.751 87.344 192.511 86.864 193.951 85.904C195.423 84.912 196.543 83.504 197.311 81.68C198.111 79.824 198.511 77.6 198.511 75.008C198.511 72.416 198.111 70.192 197.311 68.336C196.543 66.48 195.423 65.056 193.951 64.064C192.511 63.072 190.751 62.576 188.671 62.576C186.655 62.576 184.911 63.072 183.439 64.064C181.967 65.056 180.831 66.48 180.031 68.336C179.263 70.192 178.879 72.416 178.879 75.008C178.879 77.6 179.263 79.824 180.031 81.68C180.831 83.504 181.967 84.912 183.439 85.904C184.911 86.864 186.655 87.344 188.671 87.344ZM218.8 92.576C216.208 92.576 214.144 91.728 212.608 90.032C211.104 88.304 210.352 85.92 210.352 82.88V66.368H216.496V81.344C216.496 83.488 216.848 85.072 217.552 86.096C218.288 87.088 219.392 87.584 220.864 87.584C222.528 87.584 223.808 87.04 224.704 85.952C225.632 84.832 226.096 83.216 226.096 81.104V66.368H232.24V92H226.624L226.48 84.944L227.248 85.184C226.864 87.616 225.952 89.456 224.512 90.704C223.072 91.952 221.168 92.576 218.8 92.576ZM238.993 92V66.368H244.753L244.993 73.472L244.465 73.376C244.849 70.912 245.569 69.136 246.625 68.048C247.713 66.928 249.185 66.368 251.041 66.368H253.393V71.648H250.993C249.681 71.648 248.593 71.84 247.729 72.224C246.865 72.608 246.209 73.216 245.761 74.048C245.345 74.848 245.137 75.904 245.137 77.216V92H238.993ZM270.457 92V57.92H283.657C287.657 57.92 290.777 58.88 293.017 60.8C295.257 62.72 296.377 65.376 296.377 68.768C296.377 71.04 295.865 73.008 294.841 74.672C293.817 76.304 292.361 77.552 290.473 78.416C288.585 79.28 286.313 79.712 283.657 79.712H276.697V92H270.457ZM276.697 74.288H283.369C285.481 74.288 287.097 73.824 288.217 72.896C289.369 71.968 289.945 70.592 289.945 68.768C289.945 66.976 289.369 65.632 288.217 64.736C287.097 63.808 285.481 63.344 283.369 63.344H276.697V74.288ZM301.524 92V66.368H307.284L307.524 73.472L306.996 73.376C307.38 70.912 308.1 69.136 309.156 68.048C310.244 66.928 311.716 66.368 313.572 66.368H315.924V71.648H313.524C312.212 71.648 311.124 71.84 310.26 72.224C309.396 72.608 308.74 73.216 308.292 74.048C307.876 74.848 307.668 75.904 307.668 77.216V92H301.524ZM330.379 92.576C327.851 92.576 325.627 92.032 323.707 90.944C321.819 89.824 320.347 88.256 319.291 86.24C318.267 84.224 317.755 81.872 317.755 79.184C317.755 76.464 318.267 74.112 319.291 72.128C320.347 70.112 321.819 68.56 323.707 67.472C325.627 66.352 327.851 65.792 330.379 65.792C332.907 65.792 335.115 66.352 337.003 67.472C338.891 68.56 340.347 70.112 341.371 72.128C342.427 74.112 342.955 76.464 342.955 79.184C342.955 81.872 342.427 84.224 341.371 86.24C340.347 88.256 338.891 89.824 337.003 90.944C335.115 92.032 332.907 92.576 330.379 92.576ZM330.379 87.584C332.363 87.584 333.883 86.848 334.939 85.376C336.027 83.904 336.571 81.84 336.571 79.184C336.571 76.56 336.027 74.512 334.939 73.04C333.883 71.536 332.363 70.784 330.379 70.784C328.395 70.784 326.859 71.536 325.771 73.04C324.683 74.512 324.139 76.56 324.139 79.184C324.139 81.84 324.683 83.904 325.771 85.376C326.859 86.848 328.395 87.584 330.379 87.584ZM347.696 99.2V66.368H353.6L353.744 71.84L353.12 71.552C353.76 69.664 354.8 68.24 356.24 67.28C357.712 66.288 359.424 65.792 361.376 65.792C363.808 65.792 365.824 66.4 367.424 67.616C369.056 68.832 370.272 70.448 371.072 72.464C371.872 74.48 372.272 76.72 372.272 79.184C372.272 81.648 371.856 83.888 371.024 85.904C370.224 87.92 369.008 89.536 367.376 90.752C365.776 91.968 363.76 92.576 361.328 92.576C360.048 92.576 358.848 92.352 357.728 91.904C356.64 91.456 355.696 90.816 354.896 89.984C354.128 89.152 353.584 88.176 353.264 87.056L353.84 86.576V99.2H347.696ZM359.888 87.584C361.744 87.584 363.2 86.848 364.256 85.376C365.344 83.872 365.888 81.808 365.888 79.184C365.888 76.56 365.344 74.512 364.256 73.04C363.2 71.536 361.744 70.784 359.888 70.784C358.64 70.784 357.568 71.104 356.672 71.744C355.776 72.352 355.072 73.28 354.56 74.528C354.08 75.776 353.84 77.328 353.84 79.184C353.84 81.04 354.08 82.592 354.56 83.84C355.04 85.088 355.728 86.032 356.624 86.672C357.552 87.28 358.64 87.584 359.888 87.584ZM388.128 92.576C385.568 92.576 383.344 92.032 381.456 90.944C379.568 89.824 378.112 88.256 377.088 86.24C376.064 84.224 375.552 81.872 375.552 79.184C375.552 76.496 376.064 74.16 377.088 72.176C378.112 70.16 379.552 68.592 381.408 67.472C383.296 66.352 385.488 65.792 387.984 65.792C390.416 65.792 392.544 66.336 394.368 67.424C396.224 68.512 397.648 70.08 398.64 72.128C399.632 74.176 400.128 76.64 400.128 79.52V80.912H381.936C382.064 83.152 382.672 84.848 383.76 86C384.88 87.12 386.352 87.68 388.176 87.68C389.552 87.68 390.688 87.376 391.584 86.768C392.512 86.128 393.152 85.248 393.504 84.128L399.792 84.512C399.088 87.008 397.696 88.976 395.616 90.416C393.568 91.856 391.072 92.576 388.128 92.576ZM381.936 76.784H393.792C393.664 74.704 393.072 73.168 392.016 72.176C390.96 71.152 389.616 70.64 387.984 70.64C386.352 70.64 384.992 71.168 383.904 72.224C382.848 73.28 382.192 74.8 381.936 76.784ZM404.93 92V66.368H410.69L410.93 73.472L410.402 73.376C410.786 70.912 411.506 69.136 412.562 68.048C413.65 66.928 415.122 66.368 416.978 66.368H419.33V71.648H416.93C415.618 71.648 414.53 71.84 413.666 72.224C412.802 72.608 412.146 73.216 411.698 74.048C411.282 74.848 411.074 75.904 411.074 77.216V92H404.93ZM433.015 92C430.455 92 428.567 91.408 427.351 90.224C426.167 89.04 425.575 87.184 425.575 84.656V60.368H431.719V84.08C431.719 85.264 431.975 86.096 432.487 86.576C432.999 87.024 433.799 87.248 434.887 87.248H438.487V92H433.015ZM421.543 71.12V66.368H438.487V71.12H421.543ZM442.993 92V66.368H449.137V92H442.993ZM442.897 62.96V57.488H449.281V62.96H442.897ZM466.503 92.576C463.943 92.576 461.719 92.032 459.831 90.944C457.943 89.824 456.487 88.256 455.463 86.24C454.439 84.224 453.927 81.872 453.927 79.184C453.927 76.496 454.439 74.16 455.463 72.176C456.487 70.16 457.927 68.592 459.783 67.472C461.671 66.352 463.863 65.792 466.359 65.792C468.791 65.792 470.919 66.336 472.743 67.424C474.599 68.512 476.023 70.08 477.015 72.128C478.007 74.176 478.503 76.64 478.503 79.52V80.912H460.311C460.439 83.152 461.047 84.848 462.135 86C463.255 87.12 464.727 87.68 466.551 87.68C467.927 87.68 469.063 87.376 469.959 86.768C470.887 86.128 471.527 85.248 471.879 84.128L478.167 84.512C477.463 87.008 476.071 88.976 473.991 90.416C471.943 91.856 469.447 92.576 466.503 92.576ZM460.311 76.784H472.167C472.039 74.704 471.447 73.168 470.391 72.176C469.335 71.152 467.991 70.64 466.359 70.64C464.727 70.64 463.367 71.168 462.279 72.224C461.223 73.28 460.567 74.8 460.311 76.784ZM493.721 92.576C491.193 92.576 489.065 92.208 487.337 91.472C485.641 90.736 484.329 89.712 483.401 88.4C482.473 87.088 481.945 85.6 481.817 83.936L488.105 83.648C488.329 84.992 488.889 86.032 489.785 86.768C490.681 87.504 492.009 87.872 493.769 87.872C495.209 87.872 496.329 87.648 497.129 87.2C497.961 86.72 498.377 85.984 498.377 84.992C498.377 84.416 498.233 83.936 497.945 83.552C497.657 83.168 497.113 82.832 496.313 82.544C495.513 82.256 494.329 81.968 492.761 81.68C490.137 81.232 488.073 80.688 486.569 80.048C485.065 79.376 483.993 78.544 483.353 77.552C482.745 76.56 482.441 75.328 482.441 73.856C482.441 71.456 483.353 69.52 485.177 68.048C487.033 66.544 489.737 65.792 493.289 65.792C495.593 65.792 497.529 66.176 499.097 66.944C500.665 67.68 501.881 68.704 502.745 70.016C503.641 71.296 504.201 72.768 504.425 74.432L498.233 74.72C498.073 73.856 497.785 73.104 497.369 72.464C496.953 71.824 496.393 71.344 495.689 71.024C494.985 70.672 494.153 70.496 493.193 70.496C491.753 70.496 490.665 70.784 489.929 71.36C489.193 71.936 488.825 72.704 488.825 73.664C488.825 74.336 488.985 74.896 489.305 75.344C489.657 75.792 490.217 76.16 490.985 76.448C491.753 76.704 492.777 76.944 494.057 77.168C496.745 77.584 498.857 78.128 500.393 78.8C501.961 79.44 503.065 80.272 503.705 81.296C504.377 82.288 504.713 83.488 504.713 84.896C504.713 86.528 504.249 87.92 503.321 89.072C502.425 90.224 501.145 91.104 499.481 91.712C497.849 92.288 495.929 92.576 493.721 92.576Z" fill="#E6E6E6"/>
<defs>
<filter id="filter0_g_189_1519" x="0" y="0" width="677" height="149" filterUnits="userSpaceOnUse" color-interpolation-filters="sRGB">
<feFlood flood-opacity="0" result="BackgroundImageFix"/>
<feBlend mode="normal" in="SourceGraphic" in2="BackgroundImageFix" result="shape"/>
<feTurbulence type="fractalNoise" baseFrequency="0.1111111119389534 0.1111111119389534" numOctaves="3" seed="789" />
<feDisplacementMap in="shape" scale="48" xChannelSelector="R" yChannelSelector="G" result="displacedImage" width="100%" height="100%" />
<feMerge result="effect1_texture_189_1519">
<feMergeNode in="displacedImage"/>
</feMerge>
</filter>
</defs>
</svg>
