<svg width="845" height="149" viewBox="0 0 845 149" fill="none" xmlns="http://www.w3.org/2000/svg">
<g filter="url(#filter0_g_260_3)">
<rect x="24" y="24" width="797" height="101" rx="50.5" fill="#006176"/>
</g>
<path d="M76.3201 92L67.1041 57.92H74.7361L80.5921 81.92L86.4961 57.92H92.8801L98.8321 81.92L104.64 57.92H112.272L103.104 92H95.2321L89.6641 70.208L84.0961 92H76.3201ZM115.887 92V57.92H123.087V72.272H122.127C122.383 70.768 122.879 69.536 123.615 68.576C124.383 67.616 125.327 66.896 126.447 66.416C127.599 65.936 128.847 65.696 130.191 65.696C132.111 65.696 133.711 66.112 134.991 66.944C136.271 67.776 137.231 68.928 137.871 70.4C138.543 71.872 138.879 73.552 138.879 75.44V92H131.679V77.168C131.679 75.248 131.375 73.808 130.767 72.848C130.191 71.888 129.199 71.408 127.791 71.408C126.319 71.408 125.167 71.904 124.335 72.896C123.503 73.888 123.087 75.376 123.087 77.36V92H115.887ZM145.796 99.2V93.824H149.204C150.036 93.824 150.644 93.696 151.028 93.44C151.444 93.216 151.764 92.8 151.988 92.192L152.516 90.704H150.548L141.524 66.272H148.868L154.772 83.984L160.292 66.272H167.636L157.748 94.448C157.172 96.144 156.34 97.36 155.252 98.096C154.164 98.832 152.644 99.2 150.692 99.2H145.796ZM196.459 92.768C193.579 92.768 191.083 92.24 188.971 91.184C186.891 90.128 185.275 88.624 184.123 86.672C182.971 84.688 182.395 82.368 182.395 79.712V57.872H189.691V79.712C189.691 81.92 190.267 83.632 191.419 84.848C192.603 86.032 194.283 86.624 196.459 86.624C198.635 86.624 200.299 86.032 201.451 84.848C202.603 83.632 203.179 81.92 203.179 79.712V57.872H210.475V79.712C210.475 82.368 209.899 84.688 208.747 86.672C207.627 88.624 206.011 90.128 203.899 91.184C201.787 92.24 199.307 92.768 196.459 92.768ZM227.473 92.576C224.817 92.576 222.593 92.208 220.801 91.472C219.009 90.704 217.633 89.68 216.673 88.4C215.745 87.088 215.217 85.584 215.089 83.888L222.385 83.648C222.609 84.864 223.121 85.808 223.921 86.48C224.721 87.152 225.905 87.488 227.473 87.488C228.753 87.488 229.745 87.28 230.449 86.864C231.185 86.448 231.553 85.808 231.553 84.944C231.553 84.4 231.425 83.952 231.169 83.6C230.913 83.216 230.401 82.896 229.633 82.64C228.897 82.352 227.793 82.096 226.321 81.872C223.601 81.392 221.473 80.832 219.937 80.192C218.401 79.552 217.313 78.72 216.673 77.696C216.033 76.672 215.713 75.424 215.713 73.952C215.713 71.488 216.657 69.504 218.545 68C220.465 66.464 223.329 65.696 227.137 65.696C229.569 65.696 231.601 66.08 233.233 66.848C234.897 67.616 236.177 68.672 237.073 70.016C238.001 71.328 238.577 72.832 238.801 74.528L231.553 74.816C231.457 73.984 231.201 73.28 230.785 72.704C230.401 72.096 229.905 71.632 229.297 71.312C228.689 70.96 227.953 70.784 227.089 70.784C225.809 70.784 224.817 71.056 224.113 71.6C223.441 72.112 223.105 72.8 223.105 73.664C223.105 74.304 223.249 74.832 223.537 75.248C223.857 75.632 224.369 75.952 225.073 76.208C225.777 76.464 226.721 76.672 227.905 76.832C230.657 77.216 232.833 77.76 234.433 78.464C236.065 79.136 237.233 79.984 237.937 81.008C238.641 82.032 238.993 83.296 238.993 84.8C238.993 86.464 238.513 87.872 237.552 89.024C236.593 90.176 235.249 91.056 233.521 91.664C231.825 92.272 229.809 92.576 227.473 92.576ZM255.002 92.576C252.378 92.576 250.09 92.032 248.138 90.944C246.218 89.824 244.714 88.256 243.626 86.24C242.57 84.224 242.042 81.856 242.042 79.136C242.042 76.416 242.57 74.064 243.626 72.08C244.714 70.064 246.218 68.496 248.138 67.376C250.058 66.256 252.33 65.696 254.954 65.696C257.514 65.696 259.738 66.256 261.626 67.376C263.514 68.496 264.97 70.096 265.994 72.176C267.05 74.256 267.578 76.736 267.578 79.616V81.056H249.482C249.578 83.104 250.122 84.624 251.114 85.616C252.138 86.608 253.482 87.104 255.146 87.104C256.362 87.104 257.37 86.848 258.17 86.336C259.002 85.824 259.594 85.04 259.946 83.984L267.194 84.416C266.522 86.976 265.098 88.976 262.922 90.416C260.746 91.856 258.106 92.576 255.002 92.576ZM249.482 76.64H260.186C260.09 74.752 259.562 73.344 258.602 72.416C257.674 71.488 256.458 71.024 254.954 71.024C253.45 71.024 252.202 71.52 251.21 72.512C250.25 73.472 249.674 74.848 249.482 76.64ZM283.802 92V57.92H291.098V74.096L287.882 71.792H307.274L304.01 74.096V57.92H311.306V92H304.01V75.632L307.274 77.936H287.882L291.098 75.632V92H283.802ZM332.443 92.768C329.563 92.768 327.067 92.24 324.955 91.184C322.875 90.128 321.259 88.624 320.107 86.672C318.955 84.688 318.379 82.368 318.379 79.712V57.872H325.675V79.712C325.675 81.92 326.251 83.632 327.403 84.848C328.587 86.032 330.267 86.624 332.443 86.624C334.619 86.624 336.283 86.032 337.435 84.848C338.587 83.632 339.163 81.92 339.163 79.712V57.872H346.459V79.712C346.459 82.368 345.883 84.688 344.731 86.672C343.611 88.624 341.995 90.128 339.883 91.184C337.771 92.24 335.291 92.768 332.443 92.768ZM353.552 92V57.92H363.296L371.984 82.736L380.624 57.92H390.368V92H383.072V69.92L375.056 91.904H368.816L360.848 69.92V92H353.552ZM396.818 92V57.92H410.066C414.29 57.92 417.522 58.672 419.762 60.176C422.002 61.648 423.122 63.984 423.122 67.184C423.122 68.592 422.834 69.824 422.258 70.88C421.682 71.904 420.834 72.72 419.714 73.328C418.626 73.936 417.298 74.304 415.73 74.432V74.336C418.578 74.528 420.754 75.36 422.258 76.832C423.794 78.272 424.562 80.192 424.562 82.592C424.562 85.76 423.442 88.128 421.202 89.696C418.994 91.232 415.826 92 411.698 92H396.818ZM404.114 86.048H411.362C413.122 86.048 414.53 85.696 415.586 84.992C416.674 84.256 417.218 83.168 417.218 81.728C417.218 80.288 416.674 79.2 415.586 78.464C414.53 77.696 413.122 77.312 411.362 77.312H404.114V86.048ZM404.114 72.032H409.874C411.666 72.032 413.09 71.68 414.146 70.976C415.234 70.272 415.778 69.264 415.778 67.952C415.778 66.544 415.25 65.52 414.194 64.88C413.17 64.208 411.73 63.872 409.874 63.872H404.114V72.032ZM441.49 92V57.92H455.122C459.218 57.92 462.418 58.912 464.722 60.896C467.058 62.88 468.226 65.6 468.226 69.056C468.226 71.328 467.698 73.312 466.642 75.008C465.618 76.672 464.114 77.968 462.13 78.896C460.178 79.792 457.842 80.24 455.122 80.24H448.786V92H441.49ZM448.786 74.096H454.69C456.61 74.096 458.098 73.68 459.154 72.848C460.21 71.984 460.738 70.72 460.738 69.056C460.738 67.424 460.21 66.192 459.154 65.36C458.13 64.496 456.642 64.064 454.69 64.064H448.786V74.096ZM473.074 92V66.272H479.89L480.13 73.76L479.602 73.616C480.018 71.024 480.754 69.152 481.81 68C482.866 66.848 484.322 66.272 486.178 66.272H488.53V72.224H486.178C484.834 72.224 483.73 72.4 482.866 72.752C482.002 73.104 481.346 73.664 480.898 74.432C480.482 75.2 480.274 76.24 480.274 77.552V92H473.074ZM503.207 92.576C500.583 92.576 498.295 92.032 496.343 90.944C494.391 89.824 492.871 88.256 491.783 86.24C490.695 84.224 490.151 81.856 490.151 79.136C490.151 76.416 490.695 74.064 491.783 72.08C492.871 70.064 494.391 68.496 496.343 67.376C498.295 66.256 500.583 65.696 503.207 65.696C505.831 65.696 508.119 66.256 510.071 67.376C512.023 68.496 513.543 70.064 514.631 72.08C515.719 74.064 516.263 76.416 516.263 79.136C516.263 81.856 515.719 84.224 514.631 86.24C513.543 88.256 512.023 89.824 510.071 90.944C508.119 92.032 505.831 92.576 503.207 92.576ZM503.207 87.056C504.999 87.056 506.391 86.368 507.383 84.992C508.375 83.584 508.871 81.632 508.871 79.136C508.871 76.64 508.375 74.704 507.383 73.328C506.391 71.92 504.999 71.216 503.207 71.216C501.415 71.216 500.023 71.92 499.031 73.328C498.039 74.704 497.543 76.64 497.543 79.136C497.543 81.632 498.039 83.584 499.031 84.992C500.023 86.368 501.415 87.056 503.207 87.056ZM520.746 99.2V66.272H527.658L527.802 71.696L527.226 71.456C527.866 69.6 528.906 68.176 530.346 67.184C531.786 66.192 533.466 65.696 535.386 65.696C537.786 65.696 539.786 66.288 541.386 67.472C542.986 68.656 544.186 70.272 544.986 72.32C545.818 74.336 546.234 76.608 546.234 79.136C546.234 81.632 545.818 83.904 544.986 85.952C544.186 88 542.97 89.616 541.338 90.8C539.738 91.984 537.738 92.576 535.338 92.576C534.09 92.576 532.922 92.352 531.834 91.904C530.746 91.424 529.802 90.768 529.002 89.936C528.234 89.104 527.674 88.112 527.322 86.96L527.946 86.576V99.2H520.746ZM533.37 87.056C535.066 87.056 536.394 86.352 537.354 84.944C538.346 83.536 538.842 81.6 538.842 79.136C538.842 76.672 538.346 74.736 537.354 73.328C536.394 71.92 535.066 71.216 533.37 71.216C532.25 71.216 531.274 71.52 530.442 72.128C529.642 72.704 529.018 73.584 528.57 74.768C528.154 75.952 527.946 77.408 527.946 79.136C527.946 80.864 528.154 82.32 528.57 83.504C529.018 84.688 529.642 85.584 530.442 86.192C531.274 86.768 532.25 87.056 533.37 87.056ZM562.267 92.576C559.643 92.576 557.355 92.032 555.403 90.944C553.483 89.824 551.979 88.256 550.891 86.24C549.835 84.224 549.307 81.856 549.307 79.136C549.307 76.416 549.835 74.064 550.891 72.08C551.979 70.064 553.483 68.496 555.403 67.376C557.323 66.256 559.595 65.696 562.219 65.696C564.779 65.696 567.003 66.256 568.891 67.376C570.779 68.496 572.235 70.096 573.259 72.176C574.315 74.256 574.843 76.736 574.843 79.616V81.056H556.747C556.843 83.104 557.387 84.624 558.379 85.616C559.403 86.608 560.747 87.104 562.411 87.104C563.627 87.104 564.635 86.848 565.435 86.336C566.267 85.824 566.859 85.04 567.211 83.984L574.459 84.416C573.787 86.976 572.363 88.976 570.187 90.416C568.011 91.856 565.371 92.576 562.267 92.576ZM556.747 76.64H567.451C567.355 74.752 566.827 73.344 565.867 72.416C564.939 71.488 563.723 71.024 562.219 71.024C560.715 71.024 559.467 71.52 558.475 72.512C557.515 73.472 556.939 74.848 556.747 76.64ZM579.293 92V66.272H586.109L586.349 73.76L585.821 73.616C586.237 71.024 586.973 69.152 588.029 68C589.085 66.848 590.541 66.272 592.397 66.272H594.749V72.224H592.397C591.053 72.224 589.949 72.4 589.085 72.752C588.221 73.104 587.565 73.664 587.117 74.432C586.701 75.2 586.493 76.24 586.493 77.552V92H579.293ZM608.793 92C606.137 92 604.185 91.392 602.937 90.176C601.689 88.928 601.065 86.96 601.065 84.272V60.224H608.265V83.408C608.265 84.656 608.521 85.504 609.033 85.952C609.577 86.4 610.377 86.624 611.433 86.624H615.033V92H608.793ZM596.937 71.648V66.272H615.033V71.648H596.937ZM621.061 99.2V93.824H624.469C625.301 93.824 625.909 93.696 626.293 93.44C626.709 93.216 627.029 92.8 627.253 92.192L627.781 90.704H625.813L616.789 66.272H624.133L630.037 83.984L635.557 66.272H642.901L633.013 94.448C632.437 96.144 631.605 97.36 630.517 98.096C629.429 98.832 627.909 99.2 625.957 99.2H621.061ZM658.38 92V57.92H670.14C675.676 57.92 679.932 59.408 682.908 62.384C685.884 65.328 687.372 69.536 687.372 75.008C687.372 80.448 685.9 84.64 682.956 87.584C680.044 90.528 675.868 92 670.428 92H658.38ZM665.676 85.856H670.14C673.436 85.856 675.868 84.976 677.436 83.216C679.036 81.424 679.836 78.672 679.836 74.96C679.836 71.248 679.036 68.512 677.436 66.752C675.868 64.96 673.436 64.064 670.14 64.064H665.676V85.856ZM692.177 92V57.92H715.889V64.064H699.473V71.888H715.313V77.936H699.473V85.856H716.273V92H692.177ZM719.06 92L730.628 74.912L719.156 57.92H727.604L735.044 69.392L742.292 57.92H750.788L739.316 74.816L750.932 92H742.436L734.948 80.336L727.556 92H719.06ZM760.729 81.248C760.729 78.656 761.081 76.688 761.785 75.344C762.521 73.968 763.737 72.864 765.433 72.032C766.617 71.424 767.497 70.896 768.073 70.448C768.681 69.968 769.081 69.472 769.273 68.96C769.465 68.448 769.561 67.84 769.561 67.136C769.561 65.952 769.161 64.992 768.361 64.256C767.593 63.488 766.489 63.104 765.049 63.104C763.417 63.104 762.137 63.552 761.209 64.448C760.313 65.312 759.769 66.608 759.577 68.336L752.089 67.952C752.281 65.872 752.905 64.016 753.961 62.384C755.017 60.752 756.473 59.472 758.329 58.544C760.185 57.616 762.425 57.152 765.049 57.152C767.641 57.152 769.817 57.584 771.577 58.448C773.337 59.312 774.665 60.496 775.561 62C776.489 63.504 776.953 65.216 776.953 67.136C776.953 68.512 776.745 69.68 776.329 70.64C775.945 71.6 775.321 72.464 774.457 73.232C773.593 74 772.441 74.784 771.001 75.584C769.849 76.288 769.033 77.024 768.553 77.792C768.105 78.56 767.881 79.712 767.881 81.248H760.729ZM760.297 92V84.656H768.121V92H760.297Z" fill="#E6E6E6"/>
<defs>
<filter id="filter0_g_260_3" x="0" y="0" width="845" height="149" filterUnits="userSpaceOnUse" color-interpolation-filters="sRGB">
<feFlood flood-opacity="0" result="BackgroundImageFix"/>
<feBlend mode="normal" in="SourceGraphic" in2="BackgroundImageFix" result="shape"/>
<feTurbulence type="fractalNoise" baseFrequency="0.1111111119389534 0.1111111119389534" numOctaves="3" seed="789" />
<feDisplacementMap in="shape" scale="48" xChannelSelector="R" yChannelSelector="G" result="displacedImage" width="100%" height="100%" />
<feMerge result="effect1_texture_260_3">
<feMergeNode in="displacedImage"/>
</feMerge>
</filter>
</defs>
</svg>
