<svg width="676" height="148" viewBox="0 0 676 148" fill="none" xmlns="http://www.w3.org/2000/svg">
<g filter="url(#filter0_g_902_18444)">
<rect x="24" y="24" width="628" height="100" rx="50" fill="#006176"/>
</g>
<path d="M165.53 85L159.45 62.28H163.834L167.994 79.24L172.186 62.28H176.058L180.25 79.24L184.378 62.28H188.794L182.714 85H178.106L174.138 69.448L170.17 85H165.53ZM191.412 85V62.28H195.508V71.816H194.996C195.167 70.8347 195.508 70.0347 196.02 69.416C196.532 68.776 197.161 68.3067 197.908 68.008C198.655 67.688 199.476 67.528 200.372 67.528C201.631 67.528 202.687 67.8053 203.54 68.36C204.415 68.8933 205.065 69.6507 205.492 70.632C205.94 71.6133 206.164 72.744 206.164 74.024V85H202.068V75.016C202.068 73.6293 201.833 72.5947 201.364 71.912C200.895 71.208 200.159 70.856 199.156 70.856C198.047 70.856 197.161 71.2187 196.5 71.944C195.839 72.6693 195.508 73.7253 195.508 75.112V85H191.412ZM215.216 85.384C213.424 85.384 211.984 84.9787 210.896 84.168C209.808 83.336 209.264 82.184 209.264 80.712C209.264 79.24 209.722 78.088 210.64 77.256C211.557 76.424 212.954 75.8267 214.832 75.464L220.496 74.344C220.496 73.128 220.218 72.2213 219.664 71.624C219.109 71.0053 218.288 70.696 217.2 70.696C216.218 70.696 215.44 70.9307 214.864 71.4C214.309 71.848 213.925 72.4987 213.712 73.352L209.552 73.16C209.893 71.3467 210.725 69.96 212.048 69C213.37 68.0187 215.088 67.528 217.2 67.528C219.632 67.528 221.466 68.1467 222.704 69.384C223.962 70.6 224.592 72.3493 224.592 74.632V80.84C224.592 81.288 224.666 81.5973 224.816 81.768C224.986 81.9387 225.232 82.024 225.552 82.024H226.096V85C225.968 85.0427 225.754 85.0747 225.456 85.096C225.178 85.1173 224.89 85.128 224.592 85.128C223.888 85.128 223.258 85.0213 222.704 84.808C222.149 84.5733 221.722 84.1787 221.424 83.624C221.125 83.048 220.976 82.2693 220.976 81.288L221.328 81.544C221.157 82.2907 220.784 82.9627 220.208 83.56C219.653 84.136 218.949 84.584 218.096 84.904C217.242 85.224 216.282 85.384 215.216 85.384ZM216.048 82.408C216.965 82.408 217.754 82.2267 218.416 81.864C219.077 81.5013 219.589 81 219.952 80.36C220.314 79.72 220.496 78.9627 220.496 78.088V77.128L216.08 78.024C215.162 78.216 214.501 78.504 214.096 78.888C213.712 79.2507 213.52 79.7307 213.52 80.328C213.52 80.9893 213.733 81.5013 214.16 81.864C214.608 82.2267 215.237 82.408 216.048 82.408ZM234.729 85C233.022 85 231.763 84.6053 230.953 83.816C230.163 83.0267 229.769 81.7893 229.769 80.104V63.912H233.865V79.72C233.865 80.5093 234.035 81.064 234.377 81.384C234.718 81.6827 235.251 81.832 235.977 81.832H238.377V85H234.729ZM227.081 71.08V67.912H238.377V71.08H227.081ZM249.419 85V62.28H253.579V85H249.419ZM265.012 85.384C263.327 85.384 261.908 85.1387 260.756 84.648C259.625 84.1573 258.751 83.4747 258.132 82.6C257.513 81.7253 257.161 80.7333 257.076 79.624L261.268 79.432C261.417 80.328 261.791 81.0213 262.388 81.512C262.985 82.0027 263.871 82.248 265.044 82.248C266.004 82.248 266.751 82.0987 267.284 81.8C267.839 81.48 268.116 80.9893 268.116 80.328C268.116 79.944 268.02 79.624 267.828 79.368C267.636 79.112 267.273 78.888 266.74 78.696C266.207 78.504 265.417 78.312 264.372 78.12C262.623 77.8213 261.247 77.4587 260.244 77.032C259.241 76.584 258.527 76.0293 258.1 75.368C257.695 74.7067 257.492 73.8853 257.492 72.904C257.492 71.304 258.1 70.0133 259.316 69.032C260.553 68.0293 262.356 67.528 264.724 67.528C266.26 67.528 267.551 67.784 268.596 68.296C269.641 68.7867 270.452 69.4693 271.028 70.344C271.625 71.1973 271.999 72.1787 272.148 73.288L268.02 73.48C267.913 72.904 267.721 72.4027 267.444 71.976C267.167 71.5493 266.793 71.2293 266.324 71.016C265.855 70.7813 265.3 70.664 264.66 70.664C263.7 70.664 262.975 70.856 262.484 71.24C261.993 71.624 261.748 72.136 261.748 72.776C261.748 73.224 261.855 73.5973 262.068 73.896C262.303 74.1947 262.676 74.44 263.188 74.632C263.7 74.8027 264.383 74.9627 265.236 75.112C267.028 75.3893 268.436 75.752 269.46 76.2C270.505 76.6267 271.241 77.1813 271.668 77.864C272.116 78.5253 272.34 79.3253 272.34 80.264C272.34 81.352 272.031 82.28 271.412 83.048C270.815 83.816 269.961 84.4027 268.852 84.808C267.764 85.192 266.484 85.384 265.012 85.384ZM283.732 85V62.28H287.892V73.128L285.972 71.752H299.348L297.46 73.128V62.28H301.62V85H297.46V74.024L299.348 75.368H285.972L287.892 74.024V85H283.732ZM315.809 85.512C313.974 85.512 312.363 85.16 310.977 84.456C309.611 83.752 308.555 82.76 307.809 81.48C307.083 80.1787 306.721 78.6427 306.721 76.872V62.248H310.881V76.872C310.881 78.472 311.307 79.7093 312.161 80.584C313.014 81.4587 314.23 81.896 315.809 81.896C317.387 81.896 318.603 81.4587 319.457 80.584C320.331 79.7093 320.769 78.472 320.769 76.872V62.248H324.929V76.872C324.929 78.6427 324.555 80.1787 323.809 81.48C323.062 82.76 322.006 83.752 320.641 84.456C319.297 85.16 317.686 85.512 315.809 85.512ZM330.044 85V62.28H335.644L341.916 79.88L348.188 62.28H353.788V85H349.628V69.32L343.9 84.968H339.932L334.204 69.32V85H330.044ZM358.419 85V62.28H366.931C369.705 62.28 371.806 62.7707 373.235 63.752C374.686 64.7333 375.411 66.2907 375.411 68.424C375.411 69.384 375.209 70.2267 374.803 70.952C374.419 71.656 373.843 72.2107 373.075 72.616C372.329 73.0213 371.422 73.2453 370.355 73.288L370.323 73.224C372.265 73.288 373.758 73.8213 374.803 74.824C375.849 75.8053 376.371 77.1173 376.371 78.76C376.371 80.8507 375.646 82.4187 374.195 83.464C372.766 84.488 370.729 85 368.083 85H358.419ZM362.579 81.48H367.891C369.193 81.48 370.217 81.2133 370.963 80.68C371.731 80.1467 372.115 79.3573 372.115 78.312C372.115 77.2667 371.742 76.4667 370.995 75.912C370.249 75.3573 369.214 75.08 367.891 75.08H362.579V81.48ZM362.579 71.816H366.803C368.169 71.816 369.235 71.56 370.003 71.048C370.771 70.536 371.155 69.7893 371.155 68.808C371.155 67.784 370.782 67.0267 370.035 66.536C369.289 66.0453 368.211 65.8 366.803 65.8H362.579V71.816ZM386.28 85L394.472 62.28H399.56L407.752 85H403.4L401.512 79.624H392.52L390.632 85H386.28ZM393.736 76.072H400.296L397.032 66.472L393.736 76.072ZM416.825 85.384C415.139 85.384 413.721 85.1387 412.569 84.648C411.438 84.1573 410.563 83.4747 409.945 82.6C409.326 81.7253 408.974 80.7333 408.889 79.624L413.081 79.432C413.23 80.328 413.603 81.0213 414.201 81.512C414.798 82.0027 415.683 82.248 416.857 82.248C417.817 82.248 418.563 82.0987 419.097 81.8C419.651 81.48 419.929 80.9893 419.929 80.328C419.929 79.944 419.833 79.624 419.641 79.368C419.449 79.112 419.086 78.888 418.553 78.696C418.019 78.504 417.23 78.312 416.185 78.12C414.435 77.8213 413.059 77.4587 412.057 77.032C411.054 76.584 410.339 76.0293 409.913 75.368C409.507 74.7067 409.305 73.8853 409.305 72.904C409.305 71.304 409.913 70.0133 411.129 69.032C412.366 68.0293 414.169 67.528 416.537 67.528C418.073 67.528 419.363 67.784 420.409 68.296C421.454 68.7867 422.265 69.4693 422.841 70.344C423.438 71.1973 423.811 72.1787 423.961 73.288L419.833 73.48C419.726 72.904 419.534 72.4027 419.257 71.976C418.979 71.5493 418.606 71.2293 418.137 71.016C417.667 70.7813 417.113 70.664 416.473 70.664C415.513 70.664 414.787 70.856 414.297 71.24C413.806 71.624 413.561 72.136 413.561 72.776C413.561 73.224 413.667 73.5973 413.881 73.896C414.115 74.1947 414.489 74.44 415.001 74.632C415.513 74.8027 416.195 74.9627 417.049 75.112C418.841 75.3893 420.249 75.752 421.273 76.2C422.318 76.6267 423.054 77.1813 423.481 77.864C423.929 78.5253 424.153 79.3253 424.153 80.264C424.153 81.352 423.843 82.28 423.225 83.048C422.627 83.816 421.774 84.4027 420.665 84.808C419.577 85.192 418.297 85.384 416.825 85.384ZM434.293 85.384C432.608 85.384 431.189 85.1387 430.037 84.648C428.907 84.1573 428.032 83.4747 427.413 82.6C426.795 81.7253 426.443 80.7333 426.357 79.624L430.549 79.432C430.699 80.328 431.072 81.0213 431.669 81.512C432.267 82.0027 433.152 82.248 434.325 82.248C435.285 82.248 436.032 82.0987 436.565 81.8C437.12 81.48 437.397 80.9893 437.397 80.328C437.397 79.944 437.301 79.624 437.109 79.368C436.917 79.112 436.555 78.888 436.021 78.696C435.488 78.504 434.699 78.312 433.653 78.12C431.904 77.8213 430.528 77.4587 429.525 77.032C428.523 76.584 427.808 76.0293 427.381 75.368C426.976 74.7067 426.773 73.8853 426.773 72.904C426.773 71.304 427.381 70.0133 428.597 69.032C429.835 68.0293 431.637 67.528 434.005 67.528C435.541 67.528 436.832 67.784 437.877 68.296C438.923 68.7867 439.733 69.4693 440.309 70.344C440.907 71.1973 441.28 72.1787 441.429 73.288L437.301 73.48C437.195 72.904 437.003 72.4027 436.725 71.976C436.448 71.5493 436.075 71.2293 435.605 71.016C435.136 70.7813 434.581 70.664 433.941 70.664C432.981 70.664 432.256 70.856 431.765 71.24C431.275 71.624 431.029 72.136 431.029 72.776C431.029 73.224 431.136 73.5973 431.349 73.896C431.584 74.1947 431.957 74.44 432.469 74.632C432.981 74.8027 433.664 74.9627 434.517 75.112C436.309 75.3893 437.717 75.752 438.741 76.2C439.787 76.6267 440.523 77.1813 440.949 77.864C441.397 78.5253 441.621 79.3253 441.621 80.264C441.621 81.352 441.312 82.28 440.693 83.048C440.096 83.816 439.243 84.4027 438.133 84.808C437.045 85.192 435.765 85.384 434.293 85.384ZM452.21 85.384C450.503 85.384 449.021 85.0213 447.762 84.296C446.503 83.5493 445.533 82.504 444.85 81.16C444.167 79.816 443.826 78.248 443.826 76.456C443.826 74.664 444.167 73.1067 444.85 71.784C445.533 70.44 446.493 69.3947 447.73 68.648C448.989 67.9013 450.45 67.528 452.114 67.528C453.735 67.528 455.154 67.8907 456.37 68.616C457.607 69.3413 458.557 70.3867 459.218 71.752C459.879 73.1173 460.21 74.76 460.21 76.68V77.608H448.082C448.167 79.1013 448.573 80.232 449.298 81C450.045 81.7467 451.026 82.12 452.242 82.12C453.159 82.12 453.917 81.9173 454.514 81.512C455.133 81.0853 455.559 80.4987 455.794 79.752L459.986 80.008C459.517 81.672 458.589 82.984 457.202 83.944C455.837 84.904 454.173 85.384 452.21 85.384ZM448.082 74.856H455.986C455.901 73.4693 455.506 72.4453 454.802 71.784C454.098 71.1013 453.202 70.76 452.114 70.76C451.026 70.76 450.119 71.112 449.394 71.816C448.69 72.52 448.253 73.5333 448.082 74.856ZM469.666 85C467.959 85 466.701 84.6053 465.89 83.816C465.101 83.0267 464.706 81.7893 464.706 80.104V63.912H468.802V79.72C468.802 80.5093 468.973 81.064 469.314 81.384C469.655 81.6827 470.189 81.832 470.914 81.832H473.314V85H469.666ZM462.018 71.08V67.912H473.314V71.08H462.018ZM482.981 85.384C481.296 85.384 479.877 85.1387 478.725 84.648C477.594 84.1573 476.72 83.4747 476.101 82.6C475.482 81.7253 475.13 80.7333 475.045 79.624L479.237 79.432C479.386 80.328 479.76 81.0213 480.357 81.512C480.954 82.0027 481.84 82.248 483.013 82.248C483.973 82.248 484.72 82.0987 485.253 81.8C485.808 81.48 486.085 80.9893 486.085 80.328C486.085 79.944 485.989 79.624 485.797 79.368C485.605 79.112 485.242 78.888 484.709 78.696C484.176 78.504 483.386 78.312 482.341 78.12C480.592 77.8213 479.216 77.4587 478.213 77.032C477.21 76.584 476.496 76.0293 476.069 75.368C475.664 74.7067 475.461 73.8853 475.461 72.904C475.461 71.304 476.069 70.0133 477.285 69.032C478.522 68.0293 480.325 67.528 482.693 67.528C484.229 67.528 485.52 67.784 486.565 68.296C487.61 68.7867 488.421 69.4693 488.997 70.344C489.594 71.1973 489.968 72.1787 490.117 73.288L485.989 73.48C485.882 72.904 485.69 72.4027 485.413 71.976C485.136 71.5493 484.762 71.2293 484.293 71.016C483.824 70.7813 483.269 70.664 482.629 70.664C481.669 70.664 480.944 70.856 480.453 71.24C479.962 71.624 479.717 72.136 479.717 72.776C479.717 73.224 479.824 73.5973 480.037 73.896C480.272 74.1947 480.645 74.44 481.157 74.632C481.669 74.8027 482.352 74.9627 483.205 75.112C484.997 75.3893 486.405 75.752 487.429 76.2C488.474 76.6267 489.21 77.1813 489.637 77.864C490.085 78.5253 490.309 79.3253 490.309 80.264C490.309 81.352 490 82.28 489.381 83.048C488.784 83.816 487.93 84.4027 486.821 84.808C485.733 85.192 484.453 85.384 482.981 85.384ZM506.277 78.056C506.277 76.4133 506.511 75.144 506.981 74.248C507.45 73.3307 508.261 72.5627 509.413 71.944C510.202 71.5173 510.799 71.144 511.205 70.824C511.61 70.4827 511.877 70.1307 512.005 69.768C512.154 69.384 512.229 68.9147 512.229 68.36C512.229 67.464 511.93 66.728 511.333 66.152C510.757 65.576 509.925 65.288 508.837 65.288C507.578 65.288 506.607 65.6187 505.925 66.28C505.242 66.9413 504.826 67.912 504.677 69.192L500.389 69C500.517 67.592 500.922 66.344 501.605 65.256C502.309 64.168 503.269 63.3147 504.485 62.696C505.701 62.0773 507.151 61.768 508.837 61.768C510.437 61.768 511.802 62.056 512.933 62.632C514.085 63.208 514.959 63.9973 515.557 65C516.154 65.9813 516.453 67.1013 516.453 68.36C516.453 69.2987 516.314 70.088 516.037 70.728C515.781 71.368 515.354 71.9547 514.757 72.488C514.181 73 513.423 73.544 512.485 74.12C511.674 74.5893 511.109 75.1013 510.789 75.656C510.49 76.2107 510.341 77.0107 510.341 78.056H506.277ZM505.925 85V80.52H510.597V85H505.925Z" fill="#EEEEEE"/>
<defs>
<filter id="filter0_g_902_18444" x="0" y="0" width="676" height="148" filterUnits="userSpaceOnUse" color-interpolation-filters="sRGB">
<feFlood flood-opacity="0" result="BackgroundImageFix"/>
<feBlend mode="normal" in="SourceGraphic" in2="BackgroundImageFix" result="shape"/>
<feTurbulence type="fractalNoise" baseFrequency="0.1111111119389534 0.1111111119389534" numOctaves="3" seed="789" />
<feDisplacementMap in="shape" scale="48" xChannelSelector="R" yChannelSelector="G" result="displacedImage" width="100%" height="100%" />
<feMerge result="effect1_texture_902_18444">
<feMergeNode in="displacedImage"/>
</feMerge>
</filter>
</defs>
</svg>
