<svg width="241" height="40" viewBox="0 0 241 40" fill="none" xmlns="http://www.w3.org/2000/svg">
<path d="M166.032 26.3452V17.8252H169.212C170.188 17.8252 170.948 18.0612 171.492 18.5332C172.036 18.9972 172.308 19.6452 172.308 20.4772C172.308 21.0292 172.184 21.5092 171.936 21.9172C171.688 22.3172 171.332 22.6252 170.868 22.8412C170.412 23.0492 169.86 23.1532 169.212 23.1532H167.328V26.3452H166.032ZM167.328 21.9772H169.176C169.76 21.9772 170.204 21.8532 170.508 21.6052C170.812 21.3492 170.964 20.9732 170.964 20.4772C170.964 19.9892 170.812 19.6252 170.508 19.3852C170.204 19.1372 169.76 19.0132 169.176 19.0132H167.328V21.9772ZM173.681 26.3452V19.9612H174.845L174.893 21.6532L174.785 21.6172C174.873 21.0412 175.049 20.6212 175.313 20.3572C175.585 20.0932 175.949 19.9612 176.405 19.9612H177.017V21.1012H176.405C176.085 21.1012 175.817 21.1532 175.601 21.2572C175.385 21.3612 175.221 21.5212 175.109 21.7372C175.005 21.9532 174.953 22.2332 174.953 22.5772V26.3452H173.681ZM180.551 26.4892C179.943 26.4892 179.411 26.3532 178.955 26.0812C178.499 25.8092 178.147 25.4212 177.899 24.9172C177.651 24.4132 177.527 23.8252 177.527 23.1532C177.527 22.4732 177.651 21.8852 177.899 21.3892C178.147 20.8932 178.499 20.5092 178.955 20.2372C179.411 19.9572 179.943 19.8172 180.551 19.8172C181.159 19.8172 181.691 19.9572 182.147 20.2372C182.603 20.5092 182.955 20.8932 183.203 21.3892C183.451 21.8852 183.575 22.4732 183.575 23.1532C183.575 23.8252 183.451 24.4132 183.203 24.9172C182.955 25.4212 182.603 25.8092 182.147 26.0812C181.691 26.3532 181.159 26.4892 180.551 26.4892ZM180.551 25.3852C181.095 25.3852 181.515 25.1892 181.811 24.7972C182.107 24.3972 182.255 23.8492 182.255 23.1532C182.255 22.4572 182.107 21.9132 181.811 21.5212C181.515 21.1212 181.095 20.9212 180.551 20.9212C180.015 20.9212 179.595 21.1212 179.291 21.5212C178.995 21.9132 178.847 22.4572 178.847 23.1532C178.847 23.8492 178.995 24.3972 179.291 24.7972C179.595 25.1892 180.015 25.3852 180.551 25.3852ZM184.861 28.1452V19.9612H186.061L186.097 21.3292L185.953 21.2572C186.113 20.7852 186.377 20.4292 186.745 20.1892C187.113 19.9412 187.537 19.8172 188.017 19.8172C188.641 19.8172 189.153 19.9732 189.553 20.2852C189.961 20.5892 190.261 20.9932 190.453 21.4972C190.653 22.0012 190.753 22.5532 190.753 23.1532C190.753 23.7532 190.653 24.3052 190.453 24.8092C190.261 25.3132 189.961 25.7212 189.553 26.0332C189.153 26.3372 188.641 26.4892 188.017 26.4892C187.697 26.4892 187.397 26.4332 187.117 26.3212C186.837 26.2092 186.597 26.0532 186.397 25.8532C186.205 25.6452 186.069 25.4012 185.989 25.1212L186.133 24.9772V28.1452H184.861ZM187.789 25.3852C188.301 25.3852 188.701 25.1892 188.989 24.7972C189.285 24.4052 189.433 23.8572 189.433 23.1532C189.433 22.4492 189.285 21.9012 188.989 21.5092C188.701 21.1172 188.301 20.9212 187.789 20.9212C187.453 20.9212 187.161 21.0052 186.913 21.1732C186.665 21.3332 186.473 21.5812 186.337 21.9172C186.201 22.2532 186.133 22.6652 186.133 23.1532C186.133 23.6412 186.197 24.0532 186.325 24.3892C186.461 24.7252 186.653 24.9772 186.901 25.1452C187.157 25.3052 187.453 25.3852 187.789 25.3852ZM194.673 26.4892C194.049 26.4892 193.509 26.3532 193.053 26.0812C192.605 25.8092 192.257 25.4212 192.009 24.9172C191.769 24.4132 191.649 23.8252 191.649 23.1532C191.649 22.4812 191.769 21.8972 192.009 21.4012C192.257 20.8972 192.605 20.5092 193.053 20.2372C193.501 19.9572 194.029 19.8172 194.637 19.8172C195.213 19.8172 195.721 19.9532 196.161 20.2252C196.601 20.4892 196.941 20.8732 197.181 21.3772C197.429 21.8812 197.553 22.4892 197.553 23.2012V23.5252H192.969C193.001 24.1492 193.165 24.6172 193.461 24.9292C193.765 25.2412 194.173 25.3972 194.685 25.3972C195.061 25.3972 195.373 25.3092 195.621 25.1332C195.869 24.9572 196.041 24.7212 196.137 24.4252L197.457 24.5092C197.289 25.1012 196.957 25.5812 196.461 25.9492C195.973 26.3092 195.377 26.4892 194.673 26.4892ZM192.969 22.5652H196.209C196.169 21.9972 196.005 21.5772 195.717 21.3052C195.437 21.0332 195.077 20.8972 194.637 20.8972C194.181 20.8972 193.805 21.0412 193.509 21.3292C193.221 21.6092 193.041 22.0212 192.969 22.5652ZM198.841 26.3452V19.9612H200.005L200.053 21.6532L199.945 21.6172C200.033 21.0412 200.209 20.6212 200.473 20.3572C200.745 20.0932 201.109 19.9612 201.565 19.9612H202.177V21.1012H201.565C201.245 21.1012 200.977 21.1532 200.761 21.2572C200.545 21.3612 200.381 21.5212 200.269 21.7372C200.165 21.9532 200.113 22.2332 200.113 22.5772V26.3452H198.841ZM205.485 26.3452C204.877 26.3452 204.429 26.2052 204.141 25.9252C203.853 25.6452 203.709 25.2092 203.709 24.6172V18.4612H204.981V24.5212C204.981 24.8172 205.045 25.0212 205.173 25.1332C205.301 25.2452 205.497 25.3012 205.761 25.3012H206.673V26.3452H205.485ZM202.737 21.0052V19.9612H206.673V21.0052H202.737ZM208.19 28.1452V27.1012H208.97C209.186 27.1012 209.346 27.0692 209.45 27.0052C209.554 26.9412 209.634 26.8332 209.69 26.6812L209.894 26.1532H209.498L207.194 19.9612H208.538L210.29 24.9772L211.958 19.9612H213.314L210.77 27.0892C210.642 27.4572 210.45 27.7252 210.194 27.8932C209.946 28.0612 209.598 28.1452 209.15 28.1452H208.19ZM217.368 26.3452V17.8252H220.308C221.692 17.8252 222.756 18.1972 223.5 18.9412C224.244 19.6772 224.616 20.7292 224.616 22.0972C224.616 23.4572 224.248 24.5052 223.512 25.2412C222.784 25.9772 221.74 26.3452 220.38 26.3452H217.368ZM219.192 24.8092H220.308C221.132 24.8092 221.74 24.5892 222.132 24.1492C222.532 23.7012 222.732 23.0132 222.732 22.0852C222.732 21.1572 222.532 20.4732 222.132 20.0332C221.74 19.5852 221.132 19.3612 220.308 19.3612H219.192V24.8092ZM225.818 26.3452V17.8252H231.746V19.3612H227.642V21.3172H231.602V22.8292H227.642V24.8092H231.842V26.3452H225.818ZM232.539 26.3452L235.431 22.0732L232.563 17.8252H234.675L236.535 20.6932L238.347 17.8252H240.471L237.603 22.0492L240.507 26.3452H238.383L236.511 23.4292L234.663 26.3452H232.539Z" fill="white"/>
<path d="M34.1744 10.389V29.6108C34.1744 29.6527 34.1505 29.6916 34.1146 29.7125L29.2889 32.5068L29.259 32.5247L27.6584 33.4522L27.6405 33.4641L21.9652 36.749L16.975 39.639C16.9391 39.66 16.8942 39.66 16.8583 39.639L0.0598343 29.91C0.0239337 29.889 0 29.8501 0 29.8082V10.1945C0 10.1527 0.0239337 10.1138 0.0598343 10.0928L4.70896 7.40028C4.78675 7.3554 4.88547 7.41225 4.88547 7.502V26.7866C4.88547 26.8285 4.90941 26.8674 4.94531 26.8883L16.8613 33.7902C16.8972 33.8112 16.9421 33.8112 16.978 33.7902L27.6405 27.6123L27.6584 27.6004L29.259 26.6729L29.2889 26.655V7.69646C29.2889 7.60671 29.3876 7.54986 29.4654 7.59474L34.1146 10.2873C34.1505 10.3082 34.1744 10.3471 34.1744 10.389Z" fill="#006176"/>
<path d="M27.6406 6.60466V11.9479C27.6406 12.0376 27.5419 12.0945 27.4641 12.0496L19.536 7.46029C19.4582 7.41542 19.3595 7.47226 19.3595 7.56201V16.0555C19.3595 16.1213 19.3057 16.1752 19.2428 16.1752H14.5937C14.5279 16.1752 14.477 16.1213 14.477 16.0555V7.58894C14.477 7.49918 14.3783 7.44234 14.3005 7.48722L6.66267 11.912C6.58489 11.9568 6.48616 11.9 6.48616 11.8102V6.43713C6.48616 6.39524 6.51009 6.35635 6.54599 6.33541L16.8584 0.360946C16.8943 0.340004 16.9392 0.340004 16.9751 0.360946L27.5778 6.50294C27.6137 6.52388 27.6376 6.56278 27.6376 6.60466H27.6406Z" fill="#006176"/>
<path d="M19.3027 30.6463L16.9781 31.9926C16.9422 32.0135 16.8974 32.0135 16.8615 31.9926L14.5369 30.6463C14.501 30.6254 14.4771 30.5865 14.4771 30.5446V23.9598C14.4771 23.894 14.5309 23.8402 14.5937 23.8402H19.2429C19.3087 23.8402 19.3595 23.894 19.3595 23.9598V30.5446C19.3595 30.5865 19.3356 30.6254 19.2997 30.6463H19.3027Z" fill="#006176"/>
<path d="M27.6406 25.7488C27.6406 25.7906 27.6167 25.8295 27.5808 25.8505L22.9316 28.543C22.8538 28.5879 22.7551 28.5311 22.7551 28.4413V22.4638C22.7551 22.398 22.7013 22.3442 22.6384 22.3442H11.4883C11.4225 22.3442 11.3716 22.398 11.3716 22.4638V28.6088C11.3716 28.6986 11.2729 28.7554 11.1951 28.7106L6.54599 26.018C6.51009 25.9971 6.48616 25.9582 6.48616 25.9163V13.6502C6.48616 13.6084 6.51009 13.5695 6.54599 13.5485L11.1951 10.856C11.2729 10.8111 11.3716 10.868 11.3716 10.9577V17.3181C11.3716 17.3839 11.4255 17.4378 11.4883 17.4378H22.6384C22.7043 17.4378 22.7551 17.3839 22.7551 17.3181V10.9338C22.7551 10.844 22.8538 10.7872 22.9316 10.832L27.5808 13.5246C27.6167 13.5455 27.6406 13.5844 27.6406 13.6263V25.7488Z" fill="#006176"/>
<path d="M67.6249 29.4051H61.8359V22.1532H50.6469V29.4051H44.8011V10.5992H50.6469V17.2618H61.8359V10.5992H67.6249V29.4051Z" fill="#006176"/>
<path d="M95.6216 21.1959C95.6216 26.8742 91.7144 29.7133 83.9 29.7133C74.8471 29.7133 70.9399 26.8742 70.9399 21.1959V10.5992H76.7289V21.1959C76.7289 23.9782 77.9106 24.8787 83.897 24.8787C88.3666 24.8787 89.7727 23.8376 89.7727 21.1959V10.5992H95.6186V21.1959H95.6216Z" fill="#006176"/>
<path d="M110.858 17.5961C112.519 20.4921 113.249 21.8982 113.895 23.2175C114.514 21.8952 115.244 20.519 116.901 17.623L119.908 12.2828C120.584 11.0742 121.595 10.2873 123.112 10.2873C124.629 10.2873 125.868 11.131 126.373 12.8752L131.124 29.4044H125.335L123.564 22.8556C122.975 20.7195 122.58 19.2027 122.272 17.6829C121.652 19.0052 120.949 20.4382 119.657 22.8825L117.126 27.6034C116.142 29.4583 115.184 29.7126 113.781 29.7126C112.378 29.7126 111.421 29.4583 110.436 27.6034L107.905 22.8526C106.526 20.2647 105.853 18.9454 105.264 17.6799C104.982 19.1698 104.561 20.7434 103.998 22.8526L102.227 29.4014H96.5218L101.383 12.8722C101.889 11.128 103.211 10.2844 104.671 10.2844C106.131 10.2844 107.172 11.0443 107.848 12.2798L110.855 17.5931L110.858 17.5961Z" fill="#006176"/>
<path d="M154.483 19.7351C155.776 19.2565 157.041 18.0209 157.041 15.801C157.041 12.3426 154.145 10.6014 149.649 10.6014H137.197L133.347 15.3852H151.617V17.973H133.263V29.4074H149.792C155.725 29.4074 157.439 27.0469 157.439 23.9265C157.439 21.6768 156.117 20.2168 154.486 19.7381L154.483 19.7351ZM151.617 24.5698H139.109V21.9819H151.617V24.5698Z" fill="#006176"/>
</svg>
