<svg width="239" height="40" viewBox="0 0 239 40" fill="none" xmlns="http://www.w3.org/2000/svg">
<path d="M166.032 24V15.48H169.212C170.188 15.48 170.948 15.716 171.492 16.188C172.036 16.652 172.308 17.3 172.308 18.132C172.308 18.684 172.184 19.164 171.936 19.572C171.688 19.972 171.332 20.28 170.868 20.496C170.412 20.704 169.86 20.808 169.212 20.808H167.328V24H166.032ZM167.328 19.632H169.176C169.76 19.632 170.204 19.508 170.508 19.26C170.812 19.004 170.964 18.628 170.964 18.132C170.964 17.644 170.812 17.28 170.508 17.04C170.204 16.792 169.76 16.668 169.176 16.668H167.328V19.632ZM173.681 24V17.616H174.845L174.893 19.308L174.785 19.272C174.873 18.696 175.049 18.276 175.313 18.012C175.585 17.748 175.949 17.616 176.405 17.616H177.017V18.756H176.405C176.085 18.756 175.817 18.808 175.601 18.912C175.385 19.016 175.221 19.176 175.109 19.392C175.005 19.608 174.953 19.888 174.953 20.232V24H173.681ZM180.551 24.144C179.943 24.144 179.411 24.008 178.955 23.736C178.499 23.464 178.147 23.076 177.899 22.572C177.651 22.068 177.527 21.48 177.527 20.808C177.527 20.128 177.651 19.54 177.899 19.044C178.147 18.548 178.499 18.164 178.955 17.892C179.411 17.612 179.943 17.472 180.551 17.472C181.159 17.472 181.691 17.612 182.147 17.892C182.603 18.164 182.955 18.548 183.203 19.044C183.451 19.54 183.575 20.128 183.575 20.808C183.575 21.48 183.451 22.068 183.203 22.572C182.955 23.076 182.603 23.464 182.147 23.736C181.691 24.008 181.159 24.144 180.551 24.144ZM180.551 23.04C181.095 23.04 181.515 22.844 181.811 22.452C182.107 22.052 182.255 21.504 182.255 20.808C182.255 20.112 182.107 19.568 181.811 19.176C181.515 18.776 181.095 18.576 180.551 18.576C180.015 18.576 179.595 18.776 179.291 19.176C178.995 19.568 178.847 20.112 178.847 20.808C178.847 21.504 178.995 22.052 179.291 22.452C179.595 22.844 180.015 23.04 180.551 23.04ZM184.861 25.8V17.616H186.061L186.097 18.984L185.953 18.912C186.113 18.44 186.377 18.084 186.745 17.844C187.113 17.596 187.537 17.472 188.017 17.472C188.641 17.472 189.153 17.628 189.553 17.94C189.961 18.244 190.261 18.648 190.453 19.152C190.653 19.656 190.753 20.208 190.753 20.808C190.753 21.408 190.653 21.96 190.453 22.464C190.261 22.968 189.961 23.376 189.553 23.688C189.153 23.992 188.641 24.144 188.017 24.144C187.697 24.144 187.397 24.088 187.117 23.976C186.837 23.864 186.597 23.708 186.397 23.508C186.205 23.3 186.069 23.056 185.989 22.776L186.133 22.632V25.8H184.861ZM187.789 23.04C188.301 23.04 188.701 22.844 188.989 22.452C189.285 22.06 189.433 21.512 189.433 20.808C189.433 20.104 189.285 19.556 188.989 19.164C188.701 18.772 188.301 18.576 187.789 18.576C187.453 18.576 187.161 18.66 186.913 18.828C186.665 18.988 186.473 19.236 186.337 19.572C186.201 19.908 186.133 20.32 186.133 20.808C186.133 21.296 186.197 21.708 186.325 22.044C186.461 22.38 186.653 22.632 186.901 22.8C187.157 22.96 187.453 23.04 187.789 23.04ZM194.673 24.144C194.049 24.144 193.509 24.008 193.053 23.736C192.605 23.464 192.257 23.076 192.009 22.572C191.769 22.068 191.649 21.48 191.649 20.808C191.649 20.136 191.769 19.552 192.009 19.056C192.257 18.552 192.605 18.164 193.053 17.892C193.501 17.612 194.029 17.472 194.637 17.472C195.213 17.472 195.721 17.608 196.161 17.88C196.601 18.144 196.941 18.528 197.181 19.032C197.429 19.536 197.553 20.144 197.553 20.856V21.18H192.969C193.001 21.804 193.165 22.272 193.461 22.584C193.765 22.896 194.173 23.052 194.685 23.052C195.061 23.052 195.373 22.964 195.621 22.788C195.869 22.612 196.041 22.376 196.137 22.08L197.457 22.164C197.289 22.756 196.957 23.236 196.461 23.604C195.973 23.964 195.377 24.144 194.673 24.144ZM192.969 20.22H196.209C196.169 19.652 196.005 19.232 195.717 18.96C195.437 18.688 195.077 18.552 194.637 18.552C194.181 18.552 193.805 18.696 193.509 18.984C193.221 19.264 193.041 19.676 192.969 20.22ZM198.841 24V17.616H200.005L200.053 19.308L199.945 19.272C200.033 18.696 200.209 18.276 200.473 18.012C200.745 17.748 201.109 17.616 201.565 17.616H202.177V18.756H201.565C201.245 18.756 200.977 18.808 200.761 18.912C200.545 19.016 200.381 19.176 200.269 19.392C200.165 19.608 200.113 19.888 200.113 20.232V24H198.841ZM205.485 24C204.877 24 204.429 23.86 204.141 23.58C203.853 23.3 203.709 22.864 203.709 22.272V16.116H204.981V22.176C204.981 22.472 205.045 22.676 205.173 22.788C205.301 22.9 205.497 22.956 205.761 22.956H206.673V24H205.485ZM202.737 18.66V17.616H206.673V18.66H202.737ZM208.19 25.8V24.756H208.97C209.186 24.756 209.346 24.724 209.45 24.66C209.554 24.596 209.634 24.488 209.69 24.336L209.894 23.808H209.498L207.194 17.616H208.538L210.29 22.632L211.958 17.616H213.314L210.77 24.744C210.642 25.112 210.45 25.38 210.194 25.548C209.946 25.716 209.598 25.8 209.15 25.8H208.19ZM217.512 24V15.48H220.248C221.584 15.48 222.612 15.852 223.332 16.596C224.052 17.332 224.412 18.384 224.412 19.752C224.412 21.112 224.056 22.16 223.344 22.896C222.64 23.632 221.632 24 220.32 24H217.512ZM218.808 22.812H220.248C221.192 22.812 221.896 22.56 222.36 22.056C222.832 21.544 223.068 20.776 223.068 19.752C223.068 18.712 222.832 17.94 222.36 17.436C221.896 16.924 221.192 16.668 220.248 16.668H218.808V22.812ZM228.61 24.144C227.986 24.144 227.446 24.008 226.99 23.736C226.542 23.464 226.194 23.076 225.946 22.572C225.706 22.068 225.586 21.48 225.586 20.808C225.586 20.136 225.706 19.552 225.946 19.056C226.194 18.552 226.542 18.164 226.99 17.892C227.438 17.612 227.966 17.472 228.574 17.472C229.15 17.472 229.658 17.608 230.098 17.88C230.538 18.144 230.878 18.528 231.118 19.032C231.366 19.536 231.49 20.144 231.49 20.856V21.18H226.906C226.938 21.804 227.102 22.272 227.398 22.584C227.702 22.896 228.11 23.052 228.622 23.052C228.998 23.052 229.31 22.964 229.558 22.788C229.806 22.612 229.978 22.376 230.074 22.08L231.394 22.164C231.226 22.756 230.894 23.236 230.398 23.604C229.91 23.964 229.314 24.144 228.61 24.144ZM226.906 20.22H230.146C230.106 19.652 229.942 19.232 229.654 18.96C229.374 18.688 229.014 18.552 228.574 18.552C228.118 18.552 227.742 18.696 227.446 18.984C227.158 19.264 226.978 19.676 226.906 20.22ZM231.916 24L234.232 20.736L232.012 17.616H233.428L235 19.908L236.524 17.616H237.976L235.78 20.76L238.072 24H236.656L235.012 21.564L233.356 24H231.916Z" fill="#006176"/>
<path d="M34.1744 10.0438V29.2655C34.1744 29.3074 34.1505 29.3463 34.1146 29.3673L29.2889 32.1615L29.259 32.1795L27.6584 33.1069L27.6405 33.1189L21.9652 36.4038L16.975 39.2938C16.9391 39.3147 16.8942 39.3147 16.8583 39.2938L0.0598343 29.5647C0.0239337 29.5438 0 29.5049 0 29.463V9.8493C0 9.80742 0.0239337 9.76853 0.0598343 9.74758L4.70896 7.05504C4.78675 7.01016 4.88547 7.067 4.88547 7.15676V26.4414C4.88547 26.4832 4.90941 26.5221 4.94531 26.5431L16.8613 33.445C16.8972 33.4659 16.9421 33.4659 16.978 33.445L27.6405 27.2671L27.6584 27.2551L29.259 26.3277L29.2889 26.3097V7.35122C29.2889 7.26147 29.3876 7.20462 29.4654 7.2495L34.1146 9.94204C34.1505 9.96299 34.1744 10.0019 34.1744 10.0438Z" fill="#006176"/>
<path d="M27.6406 6.25942V11.6026C27.6406 11.6924 27.5419 11.7492 27.4641 11.7043L19.536 7.11505C19.4582 7.07018 19.3595 7.12702 19.3595 7.21677V15.7103C19.3595 15.7761 19.3057 15.8299 19.2428 15.8299H14.5937C14.5279 15.8299 14.477 15.7761 14.477 15.7103V7.2437C14.477 7.15394 14.3783 7.0971 14.3005 7.14198L6.66266 11.5667C6.58487 11.6116 6.48615 11.5548 6.48615 11.465V6.09189C6.48615 6.05 6.51008 6.01111 6.54598 5.99017L16.8584 0.0157065C16.8943 -0.00523551 16.9392 -0.00523551 16.9751 0.0157065L27.5778 6.1577C27.6137 6.17865 27.6376 6.21754 27.6376 6.25942H27.6406Z" fill="#006176"/>
<path d="M19.3027 30.3011L16.9781 31.6474C16.9422 31.6683 16.8974 31.6683 16.8614 31.6474L14.5369 30.3011C14.501 30.2801 14.4771 30.2413 14.4771 30.1994V23.6146C14.4771 23.5488 14.5309 23.4949 14.5937 23.4949H19.2429C19.3087 23.4949 19.3595 23.5488 19.3595 23.6146V30.1994C19.3595 30.2413 19.3356 30.2801 19.2997 30.3011H19.3027Z" fill="#006176"/>
<path d="M27.6406 25.4035C27.6406 25.4454 27.6166 25.4843 27.5807 25.5052L22.9316 28.1978C22.8538 28.2427 22.7551 28.1858 22.7551 28.0961V22.1186C22.7551 22.0528 22.7013 21.9989 22.6384 21.9989H11.4883C11.4225 21.9989 11.3716 22.0528 11.3716 22.1186V28.2636C11.3716 28.3534 11.2729 28.4102 11.1951 28.3653L6.54598 25.6728C6.51008 25.6518 6.48615 25.6129 6.48615 25.5711V13.305C6.48615 13.2631 6.51008 13.2242 6.54598 13.2033L11.1951 10.5107C11.2729 10.4659 11.3716 10.5227 11.3716 10.6125V16.9729C11.3716 17.0387 11.4255 17.0925 11.4883 17.0925H22.6384C22.7042 17.0925 22.7551 17.0387 22.7551 16.9729V10.5885C22.7551 10.4988 22.8538 10.4419 22.9316 10.4868L27.5807 13.1794C27.6166 13.2003 27.6406 13.2392 27.6406 13.2811V25.4035Z" fill="#006176"/>
<path d="M67.6248 29.0599H61.8359V21.808H50.6468V29.0599H44.801V10.254H50.6468V16.9165H61.8359V10.254H67.6248V29.0599Z" fill="#006176"/>
<path d="M95.6216 20.8506C95.6216 26.5289 91.7144 29.3681 83.9 29.3681C74.8471 29.3681 70.9399 26.5289 70.9399 20.8506V10.254H76.7289V20.8506C76.7289 23.6329 77.9106 24.5334 83.897 24.5334C88.3666 24.5334 89.7727 23.4923 89.7727 20.8506V10.254H95.6186V20.8506H95.6216Z" fill="#006176"/>
<path d="M110.858 17.2509C112.518 20.1468 113.248 21.5529 113.895 22.8723C114.514 21.55 115.244 20.1738 116.901 17.2778L119.908 11.9376C120.584 10.7289 121.595 9.94209 123.112 9.94209C124.629 9.94209 125.868 10.7858 126.373 12.5299L131.124 29.0592H125.335L123.564 22.5103C122.975 20.3742 122.58 18.8574 122.272 17.3376C121.652 18.66 120.949 20.093 119.657 22.5372L117.126 27.2582C116.141 29.113 115.184 29.3673 113.781 29.3673C112.378 29.3673 111.421 29.113 110.436 27.2582L107.905 22.5073C106.526 19.9195 105.853 18.6001 105.264 17.3346C104.982 18.8245 104.561 20.3981 103.998 22.5073L102.227 29.0562H96.5218L101.383 12.5269C101.889 10.7828 103.211 9.9391 104.671 9.9391C106.131 9.9391 107.172 10.699 107.848 11.9346L110.855 17.2479L110.858 17.2509Z" fill="#006176"/>
<path d="M154.483 19.3899C155.776 18.9112 157.041 17.6756 157.041 15.4558C157.041 11.9973 154.145 10.2562 149.649 10.2562H137.197L133.347 15.0399H151.617V17.6278H133.263V29.0621H149.792C155.725 29.0621 157.439 26.7016 157.439 23.5813C157.439 21.3315 156.117 19.8715 154.486 19.3929L154.483 19.3899ZM151.617 24.2245H139.109V21.6367H151.617V24.2245Z" fill="#006176"/>
</svg>
